<svg version="1.1" id="Layer_1" xmlns="http://www.w3.org/2000/svg" xmlns:xlink="http://www.w3.org/1999/xlink" x="0px" y="0px" style="enable-background:new 0 0 595.28 419.53;" xml:space="preserve" viewBox="78.05 113.3 439.18 192.95">
<style type="text/css">
	.st0{clip-path:url(#SVGID_00000067223146230837241960000004811741257666483349_);fill:#4366B0;}
	.st1{clip-path:url(#SVGID_00000067223146230837241960000004811741257666483349_);fill:#4EB998;}
	.st2{fill:#4EB998;}
</style>
<g>
	<defs>
		<rect id="SVGID_1_" width="595.28" height="419.53"/>
	</defs>
	<clipPath id="SVGID_00000008112927292066940920000006180204673176301756_">
		<use xlink:href="#SVGID_1_" style="overflow:visible;"/>
	</clipPath>
	<path style="clip-path:url(#SVGID_00000008112927292066940920000006180204673176301756_);fill:#4366B0;" d="M370.74,269.71   c0.07-1.74,0.4-3.36,0.98-4.85c0.58-1.49,1.4-2.8,2.45-3.92c1.05-1.12,2.34-2.02,3.87-2.67s3.31-0.98,5.34-0.98   c4.07,0,7.07,1.09,8.99,3.27c1.93,2.18,2.89,5.23,2.89,9.16H370.74z M394.5,286.72c-1.09,5.09-4.65,7.63-10.68,7.63   c-4.36,0-7.63-1.29-9.81-3.87c-2.18-2.58-3.34-6.16-3.49-10.74h39.46v-6.1c0-8.5-2.2-15.26-6.59-20.27   c-4.4-5.01-10.95-7.52-19.67-7.52c-4.21,0-8.07,0.67-11.55,2.02c-3.49,1.35-6.48,3.32-8.99,5.94c-2.51,2.62-4.45,5.8-5.83,9.54   c-1.38,3.74-2.07,8.01-2.07,12.81c0,9.59,2.38,17,7.14,22.24c4.76,5.23,11.86,7.85,21.31,7.85c7.85,0,13.83-1.65,17.93-4.96   c4.1-3.3,6.67-8.16,7.68-14.55H394.5z M312.87,304.49h15.26v-32.92c0-1.53,0.31-3.01,0.93-4.47c0.62-1.45,1.58-2.76,2.89-3.92   c1.24-1.09,2.62-1.83,4.14-2.24c1.53-0.4,3.12-0.6,4.8-0.6c2.54,0,4.69,0.22,6.43,0.65l1.85-13.84c-0.73-0.14-1.56-0.27-2.51-0.38   c-0.94-0.11-2.14-0.16-3.6-0.16c-2.98,0-5.81,0.75-8.5,2.23c-2.69,1.49-4.98,3.72-6.87,6.7v-7.96h-14.82V304.49z M274.47,286.06   c0,7.05,1.51,12.06,4.52,15.04c3.02,2.98,7.65,4.47,13.9,4.47c1.82,0,3.72-0.13,5.72-0.38c2-0.26,4.05-0.71,6.16-1.36l-2.18-11.23   c-1.02,0.29-2.05,0.49-3.11,0.6c-1.05,0.11-2.09,0.16-3.11,0.16c-1.96,0-3.56-0.53-4.8-1.58c-1.24-1.05-1.85-3.07-1.85-6.05v-26.27   h13.08v-11.88h-13.08v-15.15h-15.26v15.15h-8.94v11.88h8.94V286.06z M206.04,304.49h15.26v-34.23c0-1.67,0.34-3.21,1.04-4.63   c0.69-1.42,1.54-2.63,2.56-3.65c1.24-1.09,2.56-1.92,3.98-2.51c1.42-0.58,3.11-0.87,5.07-0.87c2.54,0,4.58,0.73,6.1,2.18   c1.53,1.45,2.29,4.18,2.29,8.17v35.53h15.26v-37.61c0-7.27-1.56-12.59-4.69-15.97c-3.12-3.38-7.92-5.07-14.39-5.07   c-3.34,0-6.56,0.76-9.65,2.29c-3.09,1.53-5.76,3.96-8.01,7.3v-7.85h-14.82V304.49z M155.27,269.71c0.07-1.74,0.4-3.36,0.98-4.85   c0.58-1.49,1.4-2.8,2.45-3.92c1.05-1.12,2.34-2.02,3.87-2.67s3.31-0.98,5.34-0.98c4.07,0,7.07,1.09,8.99,3.27   c1.92,2.18,2.89,5.23,2.89,9.16H155.27z M179.03,286.72c-1.09,5.09-4.65,7.63-10.68,7.63c-4.36,0-7.63-1.29-9.81-3.87   c-2.18-2.58-3.34-6.16-3.49-10.74h39.46v-6.1c0-8.5-2.2-15.26-6.59-20.27c-4.4-5.01-10.96-7.52-19.68-7.52   c-4.21,0-8.07,0.67-11.55,2.02c-3.49,1.35-6.49,3.32-8.99,5.94c-2.51,2.62-4.45,5.8-5.83,9.54c-1.38,3.74-2.07,8.01-2.07,12.81   c0,9.59,2.38,17,7.14,22.24c4.76,5.23,11.86,7.85,21.31,7.85c7.85,0,13.82-1.65,17.93-4.96c4.1-3.3,6.67-8.16,7.68-14.55H179.03z    M115.68,283.88c-0.29,3.27-1.27,5.78-2.94,7.52c-1.67,1.74-4.03,2.62-7.08,2.62c-2.33,0-4.25-0.49-5.78-1.47   c-1.53-0.98-2.73-2.31-3.6-3.98c-0.87-1.67-1.49-3.6-1.85-5.78c-0.36-2.18-0.54-4.47-0.54-6.87c0-2.33,0.18-4.56,0.54-6.7   c0.36-2.14,1-4.05,1.91-5.72c0.91-1.67,2.13-3,3.65-3.98c1.53-0.98,3.45-1.47,5.78-1.47c3.2,0,5.45,0.89,6.76,2.67   c1.31,1.78,2.14,4.12,2.51,7.03l15.37-2.07c-0.36-2.91-1.09-5.58-2.18-8.01c-1.09-2.43-2.62-4.52-4.58-6.27   c-1.96-1.74-4.38-3.11-7.25-4.09c-2.87-0.98-6.23-1.47-10.08-1.47c-4.51,0-8.5,0.73-11.99,2.18c-3.49,1.45-6.43,3.51-8.83,6.16   c-2.4,2.65-4.23,5.85-5.5,9.59c-1.27,3.74-1.91,7.87-1.91,12.37c0,4.51,0.54,8.61,1.64,12.32c1.09,3.71,2.74,6.87,4.96,9.48   c2.21,2.62,5.07,4.65,8.56,6.1s7.63,2.18,12.43,2.18c8.21,0,14.37-2.02,18.48-6.05c4.1-4.03,6.45-9.47,7.03-16.3H115.68z"/>
	<path style="clip-path:url(#SVGID_00000008112927292066940920000006180204673176301756_);fill:#4366B0;" d="M477.96,156.35   c0.07-1.74,0.4-3.36,0.98-4.85c0.58-1.49,1.4-2.8,2.45-3.93c1.05-1.12,2.34-2.02,3.87-2.67c1.53-0.65,3.31-0.98,5.34-0.98   c4.07,0,7.07,1.09,8.99,3.27c1.92,2.18,2.89,5.23,2.89,9.16H477.96z M501.72,173.36c-1.09,5.09-4.65,7.63-10.68,7.63   c-4.36,0-7.63-1.29-9.81-3.87c-2.18-2.58-3.34-6.16-3.49-10.74h39.46v-6.1c0-8.5-2.2-15.26-6.59-20.27   c-4.4-5.01-10.95-7.52-19.67-7.52c-4.21,0-8.07,0.67-11.55,2.02c-3.49,1.35-6.49,3.32-8.99,5.94c-2.51,2.62-4.45,5.8-5.83,9.54   c-1.38,3.74-2.07,8.01-2.07,12.81c0,9.59,2.38,17,7.14,22.24c4.76,5.23,11.86,7.85,21.31,7.85c7.85,0,13.82-1.65,17.93-4.96   c4.1-3.31,6.67-8.16,7.68-14.55H501.72z M400.14,171.83c0,7.27,1.53,12.59,4.58,15.97s7.81,5.07,14.28,5.07   c3.34,0,6.49-0.76,9.43-2.29s5.58-3.96,7.9-7.3v7.85h14.82v-56.9h-15.26v34.23c0,1.67-0.35,3.22-1.04,4.63   c-0.69,1.42-1.62,2.63-2.78,3.65c-1.16,1.09-2.38,1.93-3.65,2.51c-1.27,0.58-2.89,0.87-4.85,0.87c-2.54,0-4.54-0.71-5.99-2.12   c-1.45-1.42-2.18-4.16-2.18-8.23v-35.53h-15.26V171.83z M371.76,162.24c0,2.76-0.33,5.11-0.98,7.03c-0.65,1.93-1.56,3.49-2.73,4.69   c-1.16,1.2-2.56,2.07-4.2,2.62c-1.63,0.54-3.4,0.82-5.29,0.82c-3.42,0-6.27-1.25-8.56-3.76c-2.29-2.51-3.43-6.77-3.43-12.81   c0-2.83,0.33-5.27,0.98-7.3c0.65-2.03,1.54-3.71,2.67-5.01c1.13-1.31,2.43-2.25,3.92-2.83c1.49-0.58,3.07-0.87,4.74-0.87   c1.53,0,3.05,0.18,4.58,0.54c1.53,0.36,2.9,1.11,4.14,2.23c1.23,1.13,2.23,2.74,3,4.85c0.76,2.11,1.14,4.87,1.14,8.28V162.24z    M332.96,194.72c0.36,3.12,1.11,5.87,2.23,8.23c1.13,2.36,2.74,4.32,4.85,5.88c2.11,1.56,4.78,2.73,8.01,3.49   c3.23,0.76,7.14,1.14,11.72,1.14c4.94,0,9.14-0.67,12.59-2.02c3.45-1.35,6.25-3.32,8.39-5.94c2.14-2.62,3.71-5.8,4.69-9.54   c0.98-3.74,1.47-8.01,1.47-12.81v-48.94h-14.82v6.43c-2.4-3.12-5.03-5.27-7.9-6.43c-2.87-1.16-5.83-1.74-8.88-1.74   c-3.85,0-7.32,0.71-10.41,2.12c-3.09,1.42-5.69,3.38-7.79,5.89c-2.11,2.51-3.73,5.5-4.85,8.99c-1.13,3.49-1.69,7.3-1.69,11.45   c0,8.72,1.98,15.66,5.94,20.82c3.96,5.16,9.94,7.74,17.93,7.74c3.71,0,7.03-0.71,9.97-2.12c2.94-1.42,5.36-3.51,7.25-6.27v1.74   c0,2.4-0.09,4.72-0.27,6.98c-0.18,2.25-0.65,4.25-1.42,6s-1.94,3.14-3.54,4.2c-1.6,1.05-3.82,1.58-6.65,1.58   c-1.82,0-3.36-0.09-4.63-0.27c-1.27-0.18-2.36-0.53-3.27-1.04c-0.91-0.51-1.64-1.2-2.18-2.07c-0.55-0.87-0.96-2.04-1.25-3.49   H332.96z M238.21,191.13h15.26V113.3h-15.26V191.13z M210.29,168.67c0,2.33-0.44,4.27-1.31,5.83c-0.87,1.56-2,2.85-3.38,3.87   c-2.47,1.82-5.67,2.72-9.59,2.72c-2.33,0-4.14-0.54-5.45-1.63s-1.96-2.58-1.96-4.47c0-1.24,0.18-2.36,0.54-3.38   c0.36-1.02,1.07-1.91,2.13-2.67c1.05-0.76,2.56-1.4,4.52-1.91c1.96-0.51,4.54-0.84,7.74-0.98l6.76-0.33V168.67z M210.62,191.13   h14.39v-35.97c0-3.49-0.42-6.63-1.25-9.43c-0.84-2.8-2.18-5.18-4.03-7.14c-1.85-1.96-4.31-3.47-7.36-4.52   c-3.05-1.05-6.76-1.58-11.12-1.58c-7.12,0-12.79,1.33-17,3.98c-4.21,2.65-6.83,6.96-7.85,12.92l13.95,1.31   c0.87-4.58,4.32-6.87,10.35-6.87c2.62,0,4.89,0.65,6.81,1.96c1.92,1.31,2.89,3.71,2.89,7.19v2.83l-7.3,0.33   c-3.63,0.15-7.21,0.51-10.74,1.09c-3.53,0.58-6.7,1.56-9.54,2.94c-2.83,1.38-5.12,3.31-6.87,5.78c-1.74,2.47-2.62,5.67-2.62,9.59   c0,2.98,0.51,5.54,1.53,7.68c1.02,2.14,2.38,3.91,4.09,5.29c1.71,1.38,3.71,2.4,5.99,3.05c2.29,0.65,4.7,0.98,7.25,0.98   c4.43,0,8.05-0.8,10.85-2.4c2.8-1.6,5.32-3.67,7.58-6.21V191.13z M147.66,127.03h15.7V113.3h-15.7V127.03z M147.88,191.13h15.26   v-56.9h-15.26V191.13z M119.17,163.98c0,3.27-0.35,5.94-1.04,8.01c-0.69,2.07-1.76,3.83-3.21,5.29c-2.33,2.11-5.31,3.16-8.94,3.16   c-1.67,0-3.23-0.31-4.69-0.93c-1.45-0.62-2.72-1.64-3.82-3.05c-1.09-1.42-1.94-3.27-2.56-5.56c-0.62-2.29-0.93-5.14-0.93-8.56   c0-3.12,0.33-5.81,0.98-8.07c0.65-2.25,1.54-4.07,2.67-5.45c1.13-1.38,2.43-2.4,3.93-3.05c1.49-0.65,3.07-0.98,4.74-0.98   c1.53,0,3.07,0.2,4.63,0.6c1.56,0.4,3,1.25,4.31,2.56c1.38,1.38,2.38,3.16,3,5.34c0.62,2.18,0.93,5.09,0.93,8.72V163.98z    M119.5,191.13h14.82V113.3h-15.26v26.6c-2.47-2.91-5.11-4.87-7.9-5.89c-2.8-1.02-5.61-1.53-8.45-1.53c-3.85,0-7.3,0.73-10.36,2.18   c-3.05,1.45-5.63,3.51-7.74,6.16c-2.11,2.65-3.72,5.81-4.85,9.48c-1.13,3.67-1.69,7.72-1.69,12.15c0,9.52,1.96,16.97,5.89,22.35   c3.92,5.38,9.88,8.07,17.88,8.07c7.41,0,13.3-3.09,17.66-9.26V191.13z"/>
	<path style="clip-path:url(#SVGID_00000008112927292066940920000006180204673176301756_);fill:#4EB998;" d="M269.48,185.74   c-12.77-12.77-12.77-33.49,0-46.26c12.77-12.77,33.48-12.77,46.26,0c12.78,12.78,12.78,33.49,0,46.26   C302.97,198.52,282.26,198.52,269.48,185.74"/>
</g>
<polyline class="st2" points="317.03,184.46 292.61,209.44 292.61,188.07 315.77,185.72 "/>
</svg>