<?xml version="1.0" encoding="utf-8"?>
<!-- Generator: Adobe Illustrator 27.2.0, SVG Export Plug-In . SVG Version: 6.00 Build 0)  -->
<svg version="1.1" id="Layer_1" xmlns="http://www.w3.org/2000/svg" xmlns:xlink="http://www.w3.org/1999/xlink" x="0px" y="0px"
	 viewBox="0 0 3200 2800" style="enable-background:new 0 0 3200 2800;" xml:space="preserve">
<style type="text/css">
	.st0{clip-path:url(#SVGID_00000106145134095985671430000018237782586899236283_);fill:#4EB998;}
	.st1{fill:#4EB998;}
	.st2{fill:#FFFFFF;}
	.st3{clip-path:url(#SVGID_00000161607937229409300250000013169608023981384367_);fill:#F48481;}
	.st4{fill:#F48481;}
	.st5{clip-path:url(#SVGID_00000138532121169493254950000008943166273423130032_);fill:#F48481;}
	.st6{clip-path:url(#SVGID_00000069398843184723144860000009022370574264979600_);fill:#F48481;}
	.st7{clip-path:url(#SVGID_00000137108253212928634200000007732850540397993119_);fill:#F48481;}
	.st8{clip-path:url(#SVGID_00000039122748168300528320000005855162058290534302_);fill:#F48481;}
	.st9{clip-path:url(#SVGID_00000062154381178462130030000000714320023127479184_);fill:#F48481;}
	.st10{clip-path:url(#SVGID_00000042696357830379084480000000590622553548484022_);fill:#F48481;}
	.st11{clip-path:url(#SVGID_00000165227758514854325530000017862073797292042152_);fill:#F48481;}
</style>
<g>
	<defs>
		<rect id="SVGID_1_" width="3200" height="2800"/>
	</defs>
	<clipPath id="SVGID_00000150078883424032839250000000137432899348780934_">
		<use xlink:href="#SVGID_1_"  style="overflow:visible;"/>
	</clipPath>
	<path style="clip-path:url(#SVGID_00000150078883424032839250000000137432899348780934_);fill:#4EB998;" d="M819,1942.81
		c-431.38-431.38-431.44-1130.69-0.06-1562.06C1250.25-50.56,1949.62-50.56,2381,380.81c431.31,431.31,431.31,1130.69,0,1562
		C1949.62,2374.19,1250.31,2374.12,819,1942.81"/>
</g>
<polyline class="st1" points="2424.5,1899.31 1600,2742.69 1599.94,2021.38 2381.88,1942.06 "/>
<g>
	<path class="st2" d="M1093.28,303.31h32.79c7.03,0,12.84,0.79,17.42,2.38c4.58,1.59,8.23,3.69,10.93,6.3
		c2.7,2.62,4.58,5.66,5.66,9.13c1.07,3.47,1.61,7.09,1.61,10.87c0,4.03-0.54,7.89-1.61,11.57c-1.07,3.69-2.96,6.92-5.66,9.71
		c-2.7,2.79-6.3,4.99-10.8,6.62c-4.5,1.63-10.18,2.44-17.04,2.44h-14.4v32.79h-18.9V303.31z M1125.94,346.39
		c3.34,0,6.11-0.34,8.29-1.03c2.19-0.69,3.92-1.63,5.21-2.83c1.29-1.2,2.16-2.68,2.64-4.44c0.47-1.76,0.71-3.66,0.71-5.72
		c0-2.14-0.26-4.03-0.77-5.66c-0.51-1.63-1.41-3-2.7-4.11c-1.29-1.11-3.02-1.97-5.21-2.57c-2.19-0.6-4.95-0.9-8.29-0.9h-13.63v27.26
		H1125.94z"/>
	<path class="st2" d="M1173,328h17.49v9.39c2.23-3.51,4.93-6.15,8.1-7.91c3.17-1.76,6.51-2.64,10.03-2.64
		c1.71,0,3.13,0.06,4.24,0.19c1.11,0.13,2.1,0.28,2.96,0.45l-2.19,16.33c-2.06-0.51-4.59-0.77-7.59-0.77
		c-1.97,0-3.86,0.24-5.66,0.71c-1.8,0.47-3.43,1.35-4.89,2.64c-1.54,1.37-2.68,2.92-3.41,4.63c-0.73,1.72-1.09,3.47-1.09,5.27v38.83
		h-18V328z"/>
</g>
<g>
	<defs>
		<rect id="SVGID_00000182492959437092257580000015567769362657919925_" width="3200" height="2800"/>
	</defs>
	<clipPath id="SVGID_00000093873224555237516500000007361481511653378964_">
		<use xlink:href="#SVGID_00000182492959437092257580000015567769362657919925_"  style="overflow:visible;"/>
	</clipPath>
	<path style="clip-path:url(#SVGID_00000093873224555237516500000007361481511653378964_);fill:#F48481;" d="M1229.98,387.32
		c-14.94-14.94-14.94-39.15,0-54.08c14.94-14.94,39.15-14.94,54.08,0c14.93,14.93,14.93,39.14,0,54.08
		C1269.12,402.26,1244.91,402.26,1229.98,387.32"/>
</g>
<polyline class="st4" points="1285.56,385.82 1257.02,415.02 1257.02,390.05 1284.09,387.3 "/>
<g>
	<path class="st2" d="M1316.22,373.77c0.6,3.94,2.19,6.52,4.76,7.72c2.57,1.2,5.66,1.8,9.26,1.8c4.29,0,7.35-0.53,9.19-1.61
		c1.84-1.07,2.76-2.81,2.76-5.21c0-1.71-0.58-3.21-1.74-4.5c-1.16-1.29-3.37-2.19-6.62-2.7l-9.26-1.54
		c-8.15-1.29-14.21-3.49-18.19-6.62c-3.99-3.13-5.98-7.86-5.98-14.21c0-3.26,0.71-6.17,2.12-8.74s3.41-4.76,5.98-6.56
		c2.57-1.8,5.64-3.19,9.19-4.18c3.56-0.98,7.48-1.48,11.77-1.48c5.31,0,9.77,0.54,13.37,1.61c3.6,1.07,6.54,2.51,8.81,4.31
		c2.27,1.8,3.99,3.94,5.14,6.43c1.16,2.49,1.99,5.14,2.51,7.97l-16.07,2.06c-0.77-3.09-2.12-5.36-4.05-6.81
		c-1.93-1.46-5.04-2.19-9.32-2.19c-2.4,0-4.39,0.19-5.98,0.58c-1.59,0.39-2.83,0.88-3.73,1.48c-0.9,0.6-1.54,1.29-1.93,2.06
		s-0.58,1.5-0.58,2.19c0,2.14,0.66,3.71,1.99,4.69c1.33,0.99,3.92,1.82,7.78,2.51l8.49,1.41c4.71,0.77,8.62,1.76,11.7,2.96
		c3.09,1.2,5.55,2.68,7.39,4.44c1.84,1.76,3.13,3.84,3.86,6.24c0.73,2.4,1.09,5.19,1.09,8.36c0,6.35-2.4,11.42-7.2,15.24
		c-4.8,3.81-12.22,5.72-22.25,5.72c-4.03,0-7.87-0.37-11.51-1.09c-3.64-0.73-6.9-1.99-9.77-3.79c-2.87-1.8-5.23-4.2-7.07-7.2
		c-1.84-3-2.89-6.77-3.15-11.32H1316.22z"/>
	<path class="st2" d="M1376.39,342.01h-10.54V328h10.54v-17.87h18V328h15.43v14.02h-15.43V373c0,3.52,0.73,5.9,2.19,7.14
		c1.46,1.24,3.34,1.86,5.66,1.86c1.2,0,2.42-0.06,3.67-0.19c1.24-0.13,2.46-0.36,3.66-0.71l2.57,13.24
		c-2.49,0.77-4.91,1.31-7.27,1.61c-2.36,0.3-4.61,0.45-6.75,0.45c-7.37,0-12.84-1.76-16.39-5.27c-3.56-3.51-5.34-9.43-5.34-17.74
		V342.01z"/>
	<path class="st2" d="M1421.01,328h17.49v9.39c2.23-3.51,4.93-6.15,8.1-7.91c3.17-1.76,6.51-2.64,10.03-2.64
		c1.71,0,3.13,0.06,4.24,0.19c1.11,0.13,2.1,0.28,2.96,0.45l-2.19,16.33c-2.06-0.51-4.59-0.77-7.59-0.77
		c-1.97,0-3.86,0.24-5.66,0.71c-1.8,0.47-3.43,1.35-4.89,2.64c-1.54,1.37-2.68,2.92-3.41,4.63c-0.73,1.72-1.09,3.47-1.09,5.27v38.83
		h-18V328z"/>
	<path class="st2" d="M1533.27,374.16c-1.2,7.54-4.22,13.27-9.07,17.17c-4.84,3.9-11.89,5.85-21.15,5.85
		c-11.15,0-19.52-3.09-25.14-9.26c-5.62-6.17-8.42-14.92-8.42-26.23c0-5.66,0.81-10.69,2.44-15.11c1.63-4.41,3.92-8.17,6.88-11.25
		c2.96-3.09,6.49-5.42,10.61-7.01c4.11-1.59,8.66-2.38,13.63-2.38c10.29,0,18.02,2.96,23.21,8.87c5.19,5.92,7.78,13.89,7.78,23.92
		v7.2h-46.55c0.17,5.4,1.54,9.62,4.11,12.67c2.57,3.04,6.43,4.56,11.57,4.56c7.11,0,11.32-3,12.6-9H1533.27z M1516.68,354.1
		c0-4.63-1.14-8.23-3.41-10.8c-2.27-2.57-5.81-3.86-10.61-3.86c-2.4,0-4.5,0.39-6.3,1.16s-3.32,1.82-4.56,3.15
		c-1.24,1.33-2.21,2.87-2.89,4.63c-0.69,1.76-1.07,3.66-1.16,5.72H1516.68z"/>
	<path class="st2" d="M1594.09,386.25c-5.14,7.29-12.09,10.93-20.83,10.93c-9.43,0-16.46-3.17-21.09-9.52
		c-4.63-6.34-6.94-15.13-6.94-26.36c0-5.23,0.66-10.01,1.99-14.34c1.33-4.33,3.23-8.06,5.72-11.19c2.49-3.13,5.53-5.55,9.13-7.27
		c3.6-1.71,7.67-2.57,12.22-2.57c3.34,0,6.66,0.6,9.97,1.8c3.3,1.2,6.41,3.52,9.32,6.94v-31.37h18v91.81h-17.49V386.25z
		 M1593.7,360.79c0-4.29-0.37-7.71-1.09-10.29c-0.73-2.57-1.91-4.67-3.54-6.3c-1.54-1.54-3.24-2.55-5.08-3.02
		c-1.84-0.47-3.66-0.71-5.46-0.71c-1.97,0-3.84,0.39-5.59,1.16c-1.76,0.77-3.3,1.97-4.63,3.6c-1.33,1.63-2.38,3.77-3.15,6.43
		c-0.77,2.66-1.16,5.83-1.16,9.52c0,4.03,0.36,7.39,1.09,10.09c0.73,2.7,1.74,4.89,3.02,6.56c1.29,1.67,2.78,2.87,4.5,3.6
		c1.71,0.73,3.56,1.09,5.53,1.09c4.29,0,7.8-1.24,10.54-3.73c1.71-1.71,2.98-3.79,3.79-6.24c0.81-2.44,1.22-5.59,1.22-9.45V360.79z"
		/>
	<path class="st2" d="M1627.52,328h17.49v9.26c2.66-3.94,5.81-6.81,9.45-8.62c3.64-1.8,7.44-2.7,11.38-2.7
		c7.63,0,13.29,1.99,16.97,5.98c3.68,3.99,5.53,10.27,5.53,18.84v44.36h-18V353.2c0-4.71-0.9-7.93-2.7-9.64
		c-1.8-1.71-4.2-2.57-7.2-2.57c-2.31,0-4.31,0.34-5.98,1.03c-1.67,0.69-3.24,1.67-4.69,2.96c-1.2,1.2-2.21,2.64-3.02,4.31
		c-0.82,1.67-1.22,3.49-1.22,5.46v40.38h-18V328z"/>
	<path class="st2" d="M1717.27,298.81h20.45l-19.29,19.93h-16.59L1717.27,298.81z M1703.77,328h18v67.12h-18V328z"/>
	<path class="st2" d="M1798.15,370.82c-0.69,8.06-3.45,14.47-8.29,19.22c-4.84,4.76-12.11,7.14-21.79,7.14
		c-5.66,0-10.54-0.86-14.66-2.57c-4.12-1.71-7.48-4.11-10.09-7.2c-2.62-3.09-4.57-6.81-5.85-11.19c-1.29-4.37-1.93-9.21-1.93-14.53
		c0-5.31,0.75-10.18,2.25-14.59c1.5-4.41,3.66-8.19,6.49-11.32c2.83-3.13,6.3-5.55,10.42-7.27c4.11-1.71,8.83-2.57,14.14-2.57
		c4.54,0,8.51,0.58,11.89,1.74c3.39,1.16,6.24,2.76,8.55,4.82c2.31,2.06,4.12,4.52,5.4,7.39c1.29,2.87,2.14,6.02,2.57,9.45
		l-18.13,2.44c-0.43-3.43-1.41-6.19-2.96-8.29c-1.54-2.1-4.2-3.15-7.97-3.15c-2.74,0-5.01,0.58-6.81,1.74
		c-1.8,1.16-3.24,2.72-4.31,4.69c-1.07,1.97-1.82,4.22-2.25,6.75c-0.43,2.53-0.64,5.17-0.64,7.91c0,2.83,0.21,5.53,0.64,8.1
		c0.43,2.57,1.16,4.84,2.19,6.81c1.03,1.97,2.44,3.54,4.24,4.69s4.07,1.74,6.82,1.74c3.6,0,6.38-1.03,8.36-3.09
		c1.97-2.06,3.13-5.02,3.47-8.87H1798.15z"/>
	<path class="st2" d="M1815.12,342.01h-10.54V328h10.54v-17.87h18V328h15.43v14.02h-15.43V373c0,3.52,0.73,5.9,2.19,7.14
		c1.46,1.24,3.34,1.86,5.66,1.86c1.2,0,2.42-0.06,3.67-0.19c1.24-0.13,2.46-0.36,3.66-0.71l2.57,13.24
		c-2.49,0.77-4.91,1.31-7.27,1.61c-2.36,0.3-4.61,0.45-6.75,0.45c-7.37,0-12.84-1.76-16.39-5.27c-3.56-3.51-5.34-9.43-5.34-17.74
		V342.01z"/>
	<path class="st2" d="M1855.24,328h20.83l15.04,46.68l15.04-46.68h19.93l-26.49,67.12h-18L1855.24,328z"/>
</g>
<g>
	<defs>
		<rect id="SVGID_00000021118440056323199150000013632453420063290754_" width="3200" height="2800"/>
	</defs>
	<clipPath id="SVGID_00000169544213342143552840000003813410782305849474_">
		<use xlink:href="#SVGID_00000021118440056323199150000013632453420063290754_"  style="overflow:visible;"/>
	</clipPath>
	<path style="clip-path:url(#SVGID_00000169544213342143552840000003813410782305849474_);fill:#F48481;" d="M1938.32,387.32
		c-14.94-14.94-14.94-39.15,0-54.08c14.94-14.94,39.15-14.94,54.08,0c14.93,14.93,14.93,39.14,0,54.08
		C1977.47,402.26,1953.25,402.26,1938.32,387.32"/>
</g>
<polyline class="st4" points="1993.9,385.82 1965.36,415.02 1965.36,390.05 1992.43,387.3 "/>
<g>
	<path class="st2" d="M2011.57,328h17.49v9c2.49-3.77,5.4-6.56,8.74-8.36c3.34-1.8,6.86-2.7,10.54-2.7c4.89,0,8.87,0.99,11.96,2.96
		c3.09,1.97,5.27,4.84,6.56,8.62c3.09-4.11,6.34-7.07,9.77-8.87c3.43-1.8,7.2-2.7,11.32-2.7c6.94,0,12.15,1.91,15.62,5.72
		c3.47,3.82,5.21,10.01,5.21,18.58v44.88h-18v-42.43c0-2.4-0.22-4.35-0.64-5.85c-0.43-1.5-1.01-2.68-1.74-3.54
		c-0.73-0.86-1.61-1.46-2.64-1.8c-1.03-0.34-2.1-0.51-3.21-0.51c-1.8,0-3.45,0.3-4.95,0.9c-1.5,0.6-2.98,1.63-4.44,3.09
		c-1.2,1.2-2.17,2.57-2.89,4.11c-0.73,1.54-1.09,3.17-1.09,4.89v41.15h-18v-42.43c0-2.4-0.22-4.35-0.64-5.85
		c-0.43-1.5-1.01-2.68-1.74-3.54c-0.73-0.86-1.61-1.46-2.64-1.8c-1.03-0.34-2.1-0.51-3.21-0.51c-1.8,0-3.45,0.3-4.95,0.9
		c-1.5,0.6-2.98,1.63-4.44,3.09c-1.2,1.2-2.17,2.64-2.89,4.31c-0.73,1.67-1.09,3.49-1.09,5.46v40.38h-18V328z"/>
</g>
<g>
	<path class="st2" d="M1313.32,496.32h-10.54V482.3h10.54v-2.19c0-4.11,0.6-7.67,1.8-10.67c1.2-3,2.85-5.44,4.95-7.33
		c2.1-1.88,4.56-3.28,7.39-4.18c2.83-0.9,5.92-1.35,9.26-1.35c2.14,0,4.39,0.13,6.75,0.39c2.36,0.26,4.78,0.77,7.27,1.54
		l-2.44,13.12c-2.74-0.69-5.36-1.03-7.84-1.03c-2.31,0-4.42,0.67-6.3,1.99c-1.89,1.33-2.83,3.71-2.83,7.14v2.57h15.56v14.02h-15.56
		v53.11h-18V496.32z"/>
	<path class="st2" d="M1394.98,540.94c-2.66,3-5.64,5.44-8.94,7.33c-3.3,1.88-7.57,2.83-12.79,2.83c-3,0-5.85-0.39-8.55-1.16
		c-2.7-0.77-5.06-1.97-7.07-3.6c-2.02-1.63-3.62-3.71-4.82-6.24c-1.2-2.53-1.8-5.55-1.8-9.07c0-4.63,1.03-8.4,3.09-11.32
		c2.06-2.91,4.76-5.19,8.1-6.82c3.34-1.63,7.09-2.78,11.25-3.47c4.16-0.69,8.38-1.11,12.67-1.29l8.62-0.39v-3.34
		c0-4.11-1.14-6.94-3.41-8.49c-2.27-1.54-4.95-2.31-8.04-2.31c-7.12,0-11.19,2.7-12.22,8.1l-16.46-1.54
		c1.2-7.03,4.29-12.11,9.26-15.24c4.97-3.13,11.66-4.69,20.06-4.69c5.14,0,9.52,0.62,13.12,1.86c3.6,1.24,6.49,3.02,8.68,5.34
		c2.19,2.31,3.77,5.12,4.76,8.42c0.98,3.3,1.48,7.01,1.48,11.12v42.43h-16.97V540.94z M1394.59,519.46l-7.97,0.39
		c-3.77,0.17-6.82,0.56-9.13,1.16c-2.31,0.6-4.09,1.35-5.34,2.25c-1.24,0.9-2.08,1.95-2.51,3.15c-0.43,1.2-0.64,2.53-0.64,3.99
		c0,2.23,0.77,3.99,2.31,5.27c1.54,1.29,3.68,1.93,6.43,1.93c4.63,0,8.4-1.07,11.32-3.21c1.63-1.2,2.96-2.72,3.99-4.56
		c1.03-1.84,1.54-4.13,1.54-6.88V519.46z"/>
	<path class="st2" d="M1487.56,525.12c-0.69,8.06-3.45,14.47-8.29,19.22c-4.84,4.76-12.11,7.14-21.8,7.14
		c-5.66,0-10.54-0.86-14.66-2.57s-7.48-4.11-10.09-7.2c-2.62-3.09-4.56-6.81-5.85-11.19c-1.29-4.37-1.93-9.21-1.93-14.53
		c0-5.31,0.75-10.18,2.25-14.59c1.5-4.41,3.66-8.19,6.49-11.32c2.83-3.13,6.3-5.55,10.42-7.27c4.11-1.71,8.83-2.57,14.14-2.57
		c4.54,0,8.51,0.58,11.89,1.74c3.39,1.16,6.24,2.76,8.55,4.82c2.31,2.06,4.11,4.52,5.4,7.39c1.29,2.87,2.14,6.02,2.57,9.45
		l-18.13,2.44c-0.43-3.43-1.41-6.19-2.96-8.29c-1.54-2.1-4.2-3.15-7.97-3.15c-2.74,0-5.01,0.58-6.81,1.74s-3.24,2.72-4.31,4.69
		c-1.07,1.97-1.82,4.22-2.25,6.75c-0.43,2.53-0.64,5.17-0.64,7.91c0,2.83,0.21,5.53,0.64,8.1c0.43,2.57,1.16,4.84,2.19,6.81
		c1.03,1.97,2.44,3.54,4.24,4.69s4.07,1.74,6.81,1.74c3.6,0,6.39-1.03,8.36-3.09c1.97-2.06,3.13-5.02,3.47-8.87H1487.56z"/>
	<path class="st2" d="M1500.28,457.61h18.52v16.2h-18.52V457.61z M1500.54,482.3h18v67.12h-18V482.3z"/>
	<path class="st2" d="M1534.74,457.61h18v91.81h-18V457.61z"/>
	<path class="st2" d="M1568.69,457.61h18.52v16.2h-18.52V457.61z M1568.95,482.3h18v67.12h-18V482.3z"/>
	<path class="st2" d="M1607.13,496.32h-10.54V482.3h10.54v-17.87h18v17.87h15.43v14.02h-15.43v30.99c0,3.52,0.73,5.9,2.19,7.14
		c1.46,1.24,3.34,1.86,5.66,1.86c1.2,0,2.42-0.06,3.67-0.19c1.24-0.13,2.46-0.36,3.66-0.71l2.57,13.24
		c-2.49,0.77-4.91,1.31-7.27,1.61c-2.36,0.3-4.61,0.45-6.75,0.45c-7.38,0-12.84-1.76-16.39-5.27c-3.56-3.51-5.34-9.43-5.34-17.74
		V496.32z"/>
	<path class="st2" d="M1691.62,540.94c-2.66,3-5.64,5.44-8.94,7.33c-3.3,1.88-7.57,2.83-12.79,2.83c-3,0-5.85-0.39-8.55-1.16
		s-5.06-1.97-7.07-3.6c-2.01-1.63-3.62-3.71-4.82-6.24c-1.2-2.53-1.8-5.55-1.8-9.07c0-4.63,1.03-8.4,3.09-11.32
		c2.06-2.91,4.76-5.19,8.1-6.82c3.34-1.63,7.09-2.78,11.25-3.47c4.16-0.69,8.38-1.11,12.67-1.29l8.62-0.39v-3.34
		c0-4.11-1.14-6.94-3.41-8.49c-2.27-1.54-4.95-2.31-8.04-2.31c-7.12,0-11.19,2.7-12.22,8.1l-16.46-1.54
		c1.2-7.03,4.29-12.11,9.26-15.24c4.97-3.13,11.66-4.69,20.06-4.69c5.14,0,9.52,0.62,13.12,1.86c3.6,1.24,6.49,3.02,8.68,5.34
		c2.19,2.31,3.77,5.12,4.76,8.42c0.98,3.3,1.48,7.01,1.48,11.12v42.43h-16.97V540.94z M1691.23,519.46l-7.97,0.39
		c-3.77,0.17-6.81,0.56-9.13,1.16c-2.32,0.6-4.09,1.35-5.34,2.25c-1.24,0.9-2.08,1.95-2.51,3.15c-0.43,1.2-0.64,2.53-0.64,3.99
		c0,2.23,0.77,3.99,2.31,5.27c1.54,1.29,3.69,1.93,6.43,1.93c4.63,0,8.4-1.07,11.32-3.21c1.63-1.2,2.96-2.72,3.99-4.56
		c1.03-1.84,1.54-4.13,1.54-6.88V519.46z M1683.26,453.11h20.45l-19.29,19.93h-16.59L1683.26,453.11z"/>
	<path class="st2" d="M1784.2,525.12c-0.69,8.06-3.45,14.47-8.29,19.22c-4.84,4.76-12.11,7.14-21.79,7.14
		c-5.66,0-10.54-0.86-14.66-2.57c-4.12-1.71-7.48-4.11-10.09-7.2c-2.62-3.09-4.57-6.81-5.85-11.19c-1.29-4.37-1.93-9.21-1.93-14.53
		c0-5.31,0.75-10.18,2.25-14.59c1.5-4.41,3.66-8.19,6.49-11.32c2.83-3.13,6.3-5.55,10.42-7.27c4.11-1.71,8.83-2.57,14.14-2.57
		c4.54,0,8.51,0.58,11.89,1.74c3.39,1.16,6.24,2.76,8.55,4.82c2.31,2.06,4.12,4.52,5.4,7.39c1.29,2.87,2.14,6.02,2.57,9.45
		l-18.13,2.44c-0.43-3.43-1.41-6.19-2.96-8.29c-1.54-2.1-4.2-3.15-7.97-3.15c-2.74,0-5.01,0.58-6.81,1.74
		c-1.8,1.16-3.24,2.72-4.31,4.69c-1.07,1.97-1.82,4.22-2.25,6.75c-0.43,2.53-0.64,5.17-0.64,7.91c0,2.83,0.21,5.53,0.64,8.1
		c0.43,2.57,1.16,4.84,2.19,6.81c1.03,1.97,2.44,3.54,4.24,4.69s4.07,1.74,6.82,1.74c3.6,0,6.38-1.03,8.36-3.09
		c1.97-2.06,3.13-5.02,3.47-8.87H1784.2z"/>
	<path class="st2" d="M1796.92,457.61h18.52v16.2h-18.52V457.61z M1797.18,482.3h18v67.12h-18V482.3z"/>
	<path class="st2" d="M1892.72,528.46c-1.2,7.54-4.22,13.27-9.07,17.17c-4.84,3.9-11.89,5.85-21.15,5.85
		c-11.14,0-19.53-3.09-25.14-9.26c-5.62-6.17-8.42-14.92-8.42-26.23c0-5.66,0.81-10.69,2.44-15.11c1.63-4.41,3.92-8.17,6.88-11.25
		c2.96-3.09,6.49-5.42,10.61-7.01c4.11-1.59,8.66-2.38,13.63-2.38c10.29,0,18.02,2.96,23.21,8.87c5.19,5.92,7.78,13.89,7.78,23.92
		v7.2h-46.55c0.17,5.4,1.54,9.62,4.11,12.67c2.57,3.04,6.43,4.56,11.57,4.56c7.11,0,11.32-3,12.6-9H1892.72z M1876.13,508.4
		c0-4.63-1.14-8.23-3.41-10.8c-2.27-2.57-5.81-3.86-10.61-3.86c-2.4,0-4.5,0.39-6.3,1.16s-3.32,1.82-4.56,3.15
		c-1.24,1.33-2.21,2.87-2.89,4.63c-0.69,1.76-1.07,3.66-1.16,5.72H1876.13z"/>
</g>
<g>
	<path class="st2" d="M881.62,611.92h17.62v48.09l25.85-23.4h20.83l-24.43,23.15l26.36,43.98h-19.42l-19.8-33.95l-9.39,8.49v25.46
		h-17.62V611.92z"/>
</g>
<g>
	<defs>
		<rect id="SVGID_00000179604244220637219700000009005162520414869651_" width="3200" height="2800"/>
	</defs>
	<clipPath id="SVGID_00000003063672720958891810000005792678003341975475_">
		<use xlink:href="#SVGID_00000179604244220637219700000009005162520414869651_"  style="overflow:visible;"/>
	</clipPath>
	<path style="clip-path:url(#SVGID_00000003063672720958891810000005792678003341975475_);fill:#F48481;" d="M959.04,695.93
		c-14.94-14.94-14.94-39.15,0-54.08c14.94-14.94,39.15-14.94,54.08,0c14.93,14.93,14.93,39.14,0,54.08
		C998.19,710.86,973.98,710.86,959.04,695.93"/>
</g>
<polyline class="st4" points="1014.62,694.43 986.08,723.63 986.08,698.65 1013.15,695.91 "/>
<g>
	<path class="st2" d="M1032.42,611.92h18v91.81h-18V611.92z"/>
	<path class="st2" d="M1127.96,682.77c-1.2,7.54-4.22,13.27-9.07,17.17c-4.84,3.9-11.89,5.85-21.15,5.85
		c-11.15,0-19.52-3.09-25.14-9.26c-5.62-6.17-8.42-14.92-8.42-26.23c0-5.66,0.81-10.69,2.44-15.11c1.63-4.41,3.92-8.17,6.88-11.25
		c2.96-3.09,6.49-5.42,10.61-7.01c4.11-1.59,8.66-2.38,13.63-2.38c10.29,0,18.02,2.96,23.21,8.87c5.19,5.92,7.78,13.89,7.78,23.92
		v7.2h-46.55c0.17,5.4,1.54,9.62,4.11,12.67c2.57,3.04,6.43,4.56,11.57,4.56c7.11,0,11.32-3,12.6-9H1127.96z M1111.37,662.71
		c0-4.63-1.14-8.23-3.41-10.8c-2.27-2.57-5.81-3.86-10.61-3.86c-2.4,0-4.5,0.39-6.3,1.16s-3.32,1.82-4.56,3.15
		c-1.24,1.33-2.21,2.87-2.89,4.63c-0.69,1.76-1.07,3.66-1.16,5.72H1111.37z"/>
	<path class="st2" d="M1142.23,611.92h17.62v48.09l25.85-23.4h20.83l-24.43,23.15l26.36,43.98h-19.42l-19.8-33.95l-9.39,8.49v25.46
		h-17.62V611.92z"/>
	<path class="st2" d="M1221.82,650.62h-10.54V636.6h10.54v-17.87h18v17.87h15.43v14.02h-15.43v30.99c0,3.52,0.73,5.9,2.19,7.14
		c1.46,1.24,3.34,1.86,5.66,1.86c1.2,0,2.42-0.06,3.67-0.19c1.24-0.13,2.46-0.36,3.66-0.71l2.57,13.24
		c-2.49,0.77-4.91,1.31-7.27,1.61c-2.36,0.3-4.61,0.45-6.75,0.45c-7.37,0-12.84-1.76-16.39-5.27c-3.56-3.51-5.34-9.43-5.34-17.74
		V650.62z"/>
	<path class="st2" d="M1280.07,607.42h20.44l-19.29,19.93h-16.59L1280.07,607.42z M1266.57,636.6h18v67.12h-18V636.6z"/>
	<path class="st2" d="M1293.7,636.6h20.83l15.04,46.68l15.04-46.68h19.93l-26.49,67.12h-18L1293.7,636.6z"/>
	<path class="st2" d="M1373.55,636.6h17.49v9.26c2.66-3.94,5.81-6.81,9.45-8.62c3.64-1.8,7.44-2.7,11.38-2.7
		c7.63,0,13.29,1.99,16.97,5.98c3.69,3.99,5.53,10.27,5.53,18.84v44.36h-18v-41.92c0-4.71-0.9-7.93-2.7-9.64
		c-1.8-1.71-4.2-2.57-7.2-2.57c-2.31,0-4.31,0.34-5.98,1.03c-1.67,0.69-3.24,1.67-4.69,2.96c-1.2,1.2-2.21,2.64-3.02,4.31
		c-0.82,1.67-1.22,3.49-1.22,5.46v40.38h-18V636.6z"/>
	<path class="st2" d="M1511.14,682.77c-1.2,7.54-4.22,13.27-9.07,17.17c-4.84,3.9-11.89,5.85-21.15,5.85
		c-11.15,0-19.52-3.09-25.14-9.26c-5.62-6.17-8.42-14.92-8.42-26.23c0-5.66,0.81-10.69,2.44-15.11c1.63-4.41,3.92-8.17,6.88-11.25
		c2.96-3.09,6.49-5.42,10.61-7.01c4.11-1.59,8.66-2.38,13.63-2.38c10.29,0,18.02,2.96,23.21,8.87c5.19,5.92,7.78,13.89,7.78,23.92
		v7.2h-46.55c0.17,5.4,1.54,9.62,4.11,12.67c2.57,3.04,6.43,4.56,11.57,4.56c7.11,0,11.32-3,12.6-9H1511.14z M1494.55,662.71
		c0-4.63-1.14-8.23-3.41-10.8c-2.27-2.57-5.81-3.86-10.61-3.86c-2.4,0-4.5,0.39-6.3,1.16s-3.32,1.82-4.56,3.15
		c-1.24,1.33-2.21,2.87-2.89,4.63c-0.69,1.76-1.07,3.66-1.16,5.72H1494.55z"/>
	<path class="st2" d="M1510.24,711.83c2.74,0.69,5.27,1.03,7.59,1.03s4.18-0.54,5.59-1.61c1.41-1.07,2.12-3.37,2.12-6.88V636.6h18
		v67.38c0,8.23-1.86,14.21-5.59,17.94s-9.24,5.59-16.52,5.59c-2.14,0-4.35-0.17-6.62-0.51c-2.27-0.34-4.65-0.9-7.14-1.67
		L1510.24,711.83z M1525.28,611.92h18.52v16.2h-18.52V611.92z"/>
	<path class="st2" d="M1588.16,611.92h18.52v16.2h-18.52V611.92z M1588.42,636.6h18v67.12h-18V636.6z"/>
	<path class="st2" d="M1622.49,636.6h17.49v9.26c2.66-3.94,5.81-6.81,9.45-8.62c3.64-1.8,7.44-2.7,11.38-2.7
		c7.63,0,13.29,1.99,16.97,5.98c3.68,3.99,5.53,10.27,5.53,18.84v44.36h-18v-41.92c0-4.71-0.9-7.93-2.7-9.64
		c-1.8-1.71-4.2-2.57-7.2-2.57c-2.31,0-4.31,0.34-5.98,1.03c-1.67,0.69-3.24,1.67-4.69,2.96c-1.2,1.2-2.21,2.64-3.02,4.31
		c-0.82,1.67-1.22,3.49-1.22,5.46v40.38h-18V636.6z"/>
	<path class="st2" d="M1702.73,650.62h-10.54V636.6h10.54v-17.87h18v17.87h15.43v14.02h-15.43v30.99c0,3.52,0.73,5.9,2.19,7.14
		c1.46,1.24,3.34,1.86,5.66,1.86c1.2,0,2.42-0.06,3.67-0.19c1.24-0.13,2.46-0.36,3.66-0.71l2.57,13.24
		c-2.49,0.77-4.91,1.31-7.27,1.61c-2.36,0.3-4.61,0.45-6.75,0.45c-7.37,0-12.84-1.76-16.39-5.27c-3.56-3.51-5.34-9.43-5.34-17.74
		V650.62z"/>
	<path class="st2" d="M1807.52,682.77c-1.2,7.54-4.22,13.27-9.07,17.17c-4.84,3.9-11.89,5.85-21.15,5.85
		c-11.14,0-19.53-3.09-25.14-9.26c-5.62-6.17-8.42-14.92-8.42-26.23c0-5.66,0.81-10.69,2.44-15.11c1.63-4.41,3.92-8.17,6.88-11.25
		c2.96-3.09,6.49-5.42,10.61-7.01c4.11-1.59,8.66-2.38,13.63-2.38c10.29,0,18.02,2.96,23.21,8.87c5.19,5.92,7.78,13.89,7.78,23.92
		v7.2h-46.55c0.17,5.4,1.54,9.62,4.11,12.67c2.57,3.04,6.43,4.56,11.57,4.56c7.11,0,11.32-3,12.6-9H1807.52z M1790.94,662.71
		c0-4.63-1.14-8.23-3.41-10.8c-2.27-2.57-5.81-3.86-10.61-3.86c-2.4,0-4.5,0.39-6.3,1.16s-3.32,1.82-4.56,3.15
		c-1.24,1.33-2.21,2.87-2.89,4.63c-0.69,1.76-1.07,3.66-1.16,5.72H1790.94z"/>
	<path class="st2" d="M1821.92,611.92h18v91.81h-18V611.92z"/>
	<path class="st2" d="M1855.87,611.92h18.52v16.2h-18.52V611.92z M1856.13,636.6h18v67.12h-18V636.6z"/>
	<path class="st2" d="M1908.97,707.97c0.34,1.71,0.84,3.09,1.48,4.11c0.64,1.03,1.5,1.84,2.57,2.44c1.07,0.6,2.36,1.01,3.86,1.22
		c1.5,0.21,3.32,0.32,5.46,0.32c3.34,0,5.96-0.62,7.84-1.86c1.88-1.24,3.28-2.89,4.18-4.95c0.9-2.06,1.46-4.42,1.67-7.07
		c0.21-2.66,0.32-5.4,0.32-8.23v-2.06c-2.23,3.26-5.08,5.72-8.55,7.39c-3.47,1.67-7.39,2.51-11.77,2.51
		c-9.43,0-16.48-3.04-21.15-9.13c-4.67-6.09-7.01-14.27-7.01-24.56c0-4.89,0.66-9.39,1.99-13.5c1.33-4.11,3.24-7.65,5.72-10.61
		c2.49-2.96,5.55-5.27,9.19-6.94c3.64-1.67,7.74-2.51,12.28-2.51c3.6,0,7.09,0.69,10.48,2.06c3.39,1.37,6.49,3.9,9.32,7.59v-7.59
		h17.49v57.73c0,5.66-0.58,10.69-1.74,15.11c-1.16,4.41-3,8.17-5.53,11.25c-2.53,3.09-5.83,5.42-9.9,7.01
		c-4.07,1.58-9.02,2.38-14.85,2.38c-5.4,0-10.01-0.45-13.82-1.35c-3.82-0.9-6.97-2.27-9.45-4.11c-2.49-1.84-4.39-4.16-5.72-6.94
		c-1.33-2.79-2.21-6.02-2.64-9.71H1908.97z M1936.49,667.85c0-4.03-0.45-7.29-1.35-9.77c-0.9-2.49-2.08-4.39-3.54-5.72
		c-1.46-1.33-3.09-2.21-4.89-2.64c-1.8-0.43-3.6-0.64-5.4-0.64c-1.97,0-3.84,0.34-5.59,1.03c-1.76,0.69-3.3,1.8-4.63,3.34
		c-1.33,1.54-2.38,3.52-3.15,5.91c-0.77,2.4-1.16,5.27-1.16,8.62c0,7.12,1.35,12.15,4.05,15.11s6.06,4.44,10.09,4.44
		c2.23,0,4.31-0.32,6.24-0.96c1.93-0.64,3.58-1.67,4.95-3.09c1.37-1.41,2.44-3.26,3.21-5.53c0.77-2.27,1.16-5.04,1.16-8.29V667.85z"
		/>
	<path class="st2" d="M2031.77,682.77c-1.2,7.54-4.22,13.27-9.07,17.17c-4.84,3.9-11.89,5.85-21.15,5.85
		c-11.14,0-19.53-3.09-25.14-9.26c-5.62-6.17-8.42-14.92-8.42-26.23c0-5.66,0.81-10.69,2.44-15.11c1.63-4.41,3.92-8.17,6.88-11.25
		c2.96-3.09,6.49-5.42,10.61-7.01c4.11-1.59,8.66-2.38,13.63-2.38c10.29,0,18.02,2.96,23.21,8.87c5.19,5.92,7.78,13.89,7.78,23.92
		v7.2H1986c0.17,5.4,1.54,9.62,4.11,12.67c2.57,3.04,6.43,4.56,11.57,4.56c7.11,0,11.32-3,12.6-9H2031.77z M2015.18,662.71
		c0-4.63-1.14-8.23-3.41-10.8c-2.27-2.57-5.81-3.86-10.61-3.86c-2.4,0-4.5,0.39-6.3,1.16s-3.32,1.82-4.56,3.15
		c-1.24,1.33-2.21,2.87-2.89,4.63c-0.69,1.76-1.07,3.66-1.16,5.72H2015.18z"/>
	<path class="st2" d="M2046.04,636.6h17.49v9.26c2.66-3.94,5.81-6.81,9.45-8.62c3.64-1.8,7.44-2.7,11.38-2.7
		c7.63,0,13.29,1.99,16.97,5.98c3.68,3.99,5.53,10.27,5.53,18.84v44.36h-18v-41.92c0-4.71-0.9-7.93-2.7-9.64
		c-1.8-1.71-4.2-2.57-7.2-2.57c-2.31,0-4.31,0.34-5.98,1.03c-1.67,0.69-3.24,1.67-4.69,2.96c-1.2,1.2-2.21,2.64-3.02,4.31
		c-0.82,1.67-1.22,3.49-1.22,5.46v40.38h-18V636.6z"/>
	<path class="st2" d="M2182.47,679.42c-0.69,8.06-3.45,14.47-8.29,19.22c-4.84,4.76-12.11,7.14-21.79,7.14
		c-5.66,0-10.54-0.86-14.66-2.57c-4.12-1.71-7.48-4.11-10.09-7.2c-2.62-3.09-4.57-6.81-5.85-11.19c-1.29-4.37-1.93-9.21-1.93-14.53
		c0-5.31,0.75-10.18,2.25-14.59c1.5-4.41,3.66-8.19,6.49-11.32c2.83-3.13,6.3-5.55,10.42-7.27c4.11-1.71,8.83-2.57,14.14-2.57
		c4.54,0,8.51,0.58,11.89,1.74c3.39,1.16,6.24,2.76,8.55,4.82c2.31,2.06,4.12,4.52,5.4,7.39c1.29,2.87,2.14,6.02,2.57,9.45
		l-18.13,2.44c-0.43-3.43-1.41-6.19-2.96-8.29c-1.54-2.1-4.2-3.15-7.97-3.15c-2.74,0-5.01,0.58-6.81,1.74
		c-1.8,1.16-3.24,2.72-4.31,4.69c-1.07,1.97-1.82,4.22-2.25,6.75c-0.43,2.53-0.64,5.17-0.64,7.91c0,2.83,0.21,5.53,0.64,8.1
		c0.43,2.57,1.16,4.84,2.19,6.81c1.03,1.97,2.44,3.54,4.24,4.69s4.07,1.74,6.82,1.74c3.6,0,6.38-1.03,8.36-3.09
		c1.97-2.06,3.13-5.02,3.47-8.87H2182.47z"/>
	<path class="st2" d="M2195.2,611.92h18.52v16.2h-18.52V611.92z M2195.46,636.6h18v67.12h-18V636.6z"/>
	<path class="st2" d="M2291,682.77c-1.2,7.54-4.22,13.27-9.07,17.17c-4.84,3.9-11.89,5.85-21.15,5.85
		c-11.14,0-19.53-3.09-25.14-9.26c-5.62-6.17-8.42-14.92-8.42-26.23c0-5.66,0.81-10.69,2.44-15.11c1.63-4.41,3.92-8.17,6.88-11.25
		c2.96-3.09,6.49-5.42,10.61-7.01c4.11-1.59,8.66-2.38,13.63-2.38c10.29,0,18.02,2.96,23.21,8.87c5.19,5.92,7.78,13.89,7.78,23.92
		v7.2h-46.55c0.17,5.4,1.54,9.62,4.11,12.67c2.57,3.04,6.43,4.56,11.57,4.56c7.11,0,11.32-3,12.6-9H2291z M2274.41,662.71
		c0-4.63-1.14-8.23-3.41-10.8c-2.27-2.57-5.81-3.86-10.61-3.86c-2.4,0-4.5,0.39-6.3,1.16s-3.32,1.82-4.56,3.15
		c-1.24,1.33-2.21,2.87-2.89,4.63c-0.69,1.76-1.07,3.66-1.16,5.72H2274.41z"/>
	<path class="st2" d="M2303.08,683.02h17.49l-7.97,32.79h-13.76L2303.08,683.02z"/>
</g>
<g>
	<path class="st2" d="M1047.17,766.22h18v32.79c5.06-6.77,11.91-10.16,20.57-10.16c9.34,0,16.33,3.17,20.96,9.52
		c4.63,6.34,6.94,15.04,6.94,26.1c0,5.32-0.67,10.16-1.99,14.53c-1.33,4.37-3.26,8.12-5.79,11.25c-2.53,3.13-5.59,5.55-9.19,7.27
		c-3.6,1.71-7.67,2.57-12.22,2.57c-3.6,0-7.07-0.69-10.42-2.06s-6.47-3.86-9.39-7.46v7.46h-17.49V766.22z M1065.04,824.98
		c0,4.37,0.36,7.87,1.09,10.48c0.73,2.62,1.91,4.74,3.54,6.37c1.71,1.54,3.45,2.55,5.21,3.02c1.76,0.47,3.54,0.71,5.34,0.71
		c1.97,0,3.86-0.39,5.66-1.16s3.36-1.99,4.69-3.67c1.33-1.67,2.38-3.84,3.15-6.49c0.77-2.66,1.16-5.87,1.16-9.64
		c0-3.94-0.37-7.24-1.09-9.9c-0.73-2.66-1.74-4.82-3.02-6.49c-1.29-1.67-2.81-2.87-4.56-3.6c-1.76-0.73-3.62-1.09-5.59-1.09
		c-2.23,0-4.16,0.3-5.79,0.9c-1.63,0.6-3.21,1.54-4.76,2.83c-1.72,1.63-2.98,3.69-3.79,6.17c-0.82,2.49-1.22,5.66-1.22,9.52V824.98z
		"/>
	<path class="st2" d="M1126.63,790.91h18v41.92c0,4.8,0.86,8.04,2.57,9.71c1.71,1.67,4.07,2.51,7.07,2.51
		c2.31,0,4.22-0.34,5.72-1.03c1.5-0.69,2.94-1.67,4.31-2.96c1.37-1.2,2.46-2.64,3.28-4.31c0.81-1.67,1.22-3.49,1.22-5.46v-40.38h18
		v67.12h-17.49v-9.26c-2.74,3.94-5.85,6.81-9.32,8.62c-3.47,1.8-7.18,2.7-11.12,2.7c-7.63,0-13.24-1.99-16.84-5.98
		s-5.4-10.26-5.4-18.84V790.91z"/>
	<path class="st2" d="M1249.3,849.16c-5.14,7.29-12.09,10.93-20.83,10.93c-9.43,0-16.46-3.17-21.09-9.52
		c-4.63-6.34-6.94-15.13-6.94-26.36c0-5.23,0.66-10.01,1.99-14.34c1.33-4.33,3.23-8.06,5.72-11.19c2.49-3.13,5.53-5.55,9.13-7.27
		c3.6-1.71,7.67-2.57,12.22-2.57c3.34,0,6.66,0.6,9.97,1.8c3.3,1.2,6.41,3.52,9.32,6.94v-31.37h18v91.81h-17.49V849.16z
		 M1248.92,823.7c0-4.29-0.37-7.71-1.09-10.29c-0.73-2.57-1.91-4.67-3.54-6.3c-1.54-1.54-3.24-2.55-5.08-3.02
		c-1.84-0.47-3.66-0.71-5.46-0.71c-1.97,0-3.84,0.39-5.59,1.16c-1.76,0.77-3.3,1.97-4.63,3.6c-1.33,1.63-2.38,3.77-3.15,6.43
		c-0.77,2.66-1.16,5.83-1.16,9.52c0,4.03,0.36,7.39,1.09,10.09c0.73,2.7,1.74,4.89,3.02,6.56c1.29,1.67,2.78,2.87,4.5,3.6
		c1.71,0.73,3.56,1.09,5.53,1.09c4.29,0,7.8-1.24,10.54-3.73c1.71-1.71,2.98-3.79,3.79-6.24c0.81-2.44,1.22-5.59,1.22-9.45V823.7z"
		/>
</g>
<g>
	<defs>
		<rect id="SVGID_00000036222765852418987860000017836355229755330688_" width="3200" height="2800"/>
	</defs>
	<clipPath id="SVGID_00000173871171301666196620000000306631767314522271_">
		<use xlink:href="#SVGID_00000036222765852418987860000017836355229755330688_"  style="overflow:visible;"/>
	</clipPath>
	<path style="clip-path:url(#SVGID_00000173871171301666196620000000306631767314522271_);fill:#F48481;" d="M1285.96,850.23
		c-14.94-14.94-14.94-39.15,0-54.08c14.94-14.94,39.15-14.94,54.08,0c14.93,14.93,14.93,39.14,0,54.08
		C1325.11,865.16,1300.9,865.16,1285.96,850.23"/>
</g>
<polyline class="st4" points="1341.55,848.73 1313,877.93 1313,852.96 1340.07,850.21 "/>
<g>
	<path class="st2" d="M1352.27,790.91h20.83l15.04,46.68l15.04-46.68h19.93l-26.49,67.12h-18L1352.27,790.91z"/>
	<path class="st2" d="M1470.83,849.54c-2.66,3-5.64,5.44-8.94,7.33c-3.3,1.88-7.57,2.83-12.79,2.83c-3,0-5.85-0.39-8.55-1.16
		c-2.7-0.77-5.06-1.97-7.07-3.6c-2.02-1.63-3.62-3.71-4.82-6.24c-1.2-2.53-1.8-5.55-1.8-9.07c0-4.63,1.03-8.4,3.09-11.32
		c2.06-2.91,4.76-5.19,8.1-6.82c3.34-1.63,7.09-2.78,11.25-3.47c4.16-0.69,8.38-1.11,12.67-1.29l8.62-0.39v-3.34
		c0-4.11-1.14-6.94-3.41-8.49c-2.27-1.54-4.95-2.31-8.04-2.31c-7.12,0-11.19,2.7-12.22,8.1l-16.46-1.54
		c1.2-7.03,4.29-12.11,9.26-15.24c4.97-3.13,11.66-4.69,20.06-4.69c5.14,0,9.52,0.62,13.12,1.86c3.6,1.24,6.49,3.02,8.68,5.34
		c2.19,2.31,3.77,5.12,4.76,8.42c0.98,3.3,1.48,7.01,1.48,11.12v42.43h-16.97V849.54z M1470.44,828.07l-7.97,0.39
		c-3.77,0.17-6.82,0.56-9.13,1.16c-2.31,0.6-4.09,1.35-5.34,2.25c-1.24,0.9-2.08,1.95-2.51,3.15c-0.43,1.2-0.64,2.53-0.64,3.99
		c0,2.23,0.77,3.99,2.31,5.27c1.54,1.29,3.68,1.93,6.43,1.93c4.63,0,8.4-1.07,11.32-3.21c1.63-1.2,2.96-2.72,3.99-4.56
		c1.03-1.84,1.54-4.13,1.54-6.88V828.07z"/>
	<path class="st2" d="M1503.1,790.91h17.49v9.26c2.66-3.94,5.81-6.81,9.45-8.62c3.64-1.8,7.44-2.7,11.38-2.7
		c7.63,0,13.29,1.99,16.97,5.98c3.69,3.99,5.53,10.27,5.53,18.84v44.36h-18v-41.92c0-4.71-0.9-7.93-2.7-9.64
		c-1.8-1.71-4.2-2.57-7.2-2.57c-2.31,0-4.31,0.34-5.98,1.03c-1.67,0.69-3.24,1.67-4.69,2.96c-1.2,1.2-2.21,2.64-3.02,4.31
		c-0.82,1.67-1.22,3.49-1.22,5.46v40.38h-18V790.91z"/>
	<path class="st2" d="M1579.09,766.22h18.52v16.2h-18.52V766.22z M1579.35,790.91h18v67.12h-18V790.91z"/>
	<path class="st2" d="M1653.29,849.54c-2.66,3-5.64,5.44-8.94,7.33c-3.3,1.88-7.57,2.83-12.79,2.83c-3,0-5.85-0.39-8.55-1.16
		s-5.06-1.97-7.07-3.6c-2.01-1.63-3.62-3.71-4.82-6.24c-1.2-2.53-1.8-5.55-1.8-9.07c0-4.63,1.03-8.4,3.09-11.32
		c2.06-2.91,4.76-5.19,8.1-6.82c3.34-1.63,7.09-2.78,11.25-3.47c4.16-0.69,8.38-1.11,12.67-1.29l8.62-0.39v-3.34
		c0-4.11-1.14-6.94-3.41-8.49c-2.27-1.54-4.95-2.31-8.04-2.31c-7.12,0-11.19,2.7-12.22,8.1l-16.46-1.54
		c1.2-7.03,4.29-12.11,9.26-15.24c4.97-3.13,11.66-4.69,20.06-4.69c5.14,0,9.52,0.62,13.12,1.86c3.6,1.24,6.49,3.02,8.68,5.34
		c2.19,2.31,3.77,5.12,4.76,8.42c0.98,3.3,1.48,7.01,1.48,11.12v42.43h-16.97V849.54z M1652.9,828.07l-7.97,0.39
		c-3.77,0.17-6.81,0.56-9.13,1.16c-2.32,0.6-4.09,1.35-5.34,2.25c-1.24,0.9-2.08,1.95-2.51,3.15c-0.43,1.2-0.64,2.53-0.64,3.99
		c0,2.23,0.77,3.99,2.31,5.27c1.54,1.29,3.69,1.93,6.43,1.93c4.63,0,8.4-1.07,11.32-3.21c1.63-1.2,2.96-2.72,3.99-4.56
		c1.03-1.84,1.54-4.13,1.54-6.88V828.07z"/>
	<path class="st2" d="M1714.23,766.22h17.62v48.09l25.85-23.4h20.83l-24.43,23.15l26.36,43.98h-19.42l-19.8-33.95l-9.39,8.49v25.46
		h-17.62V766.22z"/>
	<path class="st2" d="M1828.29,849.54c-2.66,3-5.64,5.44-8.94,7.33c-3.3,1.88-7.57,2.83-12.79,2.83c-3,0-5.85-0.39-8.55-1.16
		s-5.06-1.97-7.07-3.6c-2.01-1.63-3.62-3.71-4.82-6.24c-1.2-2.53-1.8-5.55-1.8-9.07c0-4.63,1.03-8.4,3.09-11.32
		c2.06-2.91,4.76-5.19,8.1-6.82c3.34-1.63,7.09-2.78,11.25-3.47c4.16-0.69,8.38-1.11,12.67-1.29l8.62-0.39v-3.34
		c0-4.11-1.14-6.94-3.41-8.49c-2.27-1.54-4.95-2.31-8.04-2.31c-7.12,0-11.19,2.7-12.22,8.1l-16.46-1.54
		c1.2-7.03,4.29-12.11,9.26-15.24c4.97-3.13,11.66-4.69,20.06-4.69c5.14,0,9.52,0.62,13.12,1.86c3.6,1.24,6.49,3.02,8.68,5.34
		c2.19,2.31,3.77,5.12,4.76,8.42c0.98,3.3,1.48,7.01,1.48,11.12v42.43h-16.97V849.54z M1827.9,828.07l-7.97,0.39
		c-3.77,0.17-6.81,0.56-9.13,1.16c-2.32,0.6-4.09,1.35-5.34,2.25c-1.24,0.9-2.08,1.95-2.51,3.15c-0.43,1.2-0.64,2.53-0.64,3.99
		c0,2.23,0.77,3.99,2.31,5.27c1.54,1.29,3.69,1.93,6.43,1.93c4.63,0,8.4-1.07,11.32-3.21c1.63-1.2,2.96-2.72,3.99-4.56
		c1.03-1.84,1.54-4.13,1.54-6.88V828.07z"/>
	<path class="st2" d="M1860.56,790.91h17.49v8.87c5.14-7.29,12.17-10.93,21.09-10.93c9.34,0,16.33,3.17,20.96,9.52
		c4.63,6.34,6.94,15.04,6.94,26.1c0,5.32-0.67,10.16-1.99,14.53c-1.33,4.37-3.26,8.12-5.79,11.25c-2.53,3.13-5.59,5.55-9.19,7.27
		c-3.6,1.71-7.67,2.57-12.22,2.57c-3.34,0-6.67-0.6-9.96-1.8c-3.3-1.2-6.41-3.6-9.32-7.2v31.89h-18V790.91z M1878.44,824.98
		c0,4.37,0.36,7.87,1.09,10.48c0.73,2.62,1.91,4.74,3.54,6.37c1.71,1.54,3.45,2.55,5.21,3.02c1.76,0.47,3.54,0.71,5.34,0.71
		c1.97,0,3.86-0.39,5.66-1.16c1.8-0.77,3.36-1.99,4.69-3.67c1.33-1.67,2.38-3.84,3.15-6.49c0.77-2.66,1.16-5.87,1.16-9.64
		c0-3.94-0.37-7.24-1.09-9.9c-0.73-2.66-1.74-4.82-3.02-6.49c-1.29-1.67-2.81-2.87-4.56-3.6c-1.76-0.73-3.62-1.09-5.59-1.09
		c-2.23,0-4.16,0.3-5.79,0.9c-1.63,0.6-3.21,1.54-4.76,2.83c-1.72,1.63-2.98,3.69-3.79,6.17c-0.82,2.49-1.22,5.66-1.22,9.52V824.98z
		"/>
	<path class="st2" d="M1980.53,849.54c-2.66,3-5.64,5.44-8.94,7.33c-3.3,1.88-7.57,2.83-12.79,2.83c-3,0-5.85-0.39-8.55-1.16
		s-5.06-1.97-7.07-3.6c-2.01-1.63-3.62-3.71-4.82-6.24c-1.2-2.53-1.8-5.55-1.8-9.07c0-4.63,1.03-8.4,3.09-11.32
		c2.06-2.91,4.76-5.19,8.1-6.82c3.34-1.63,7.09-2.78,11.25-3.47c4.16-0.69,8.38-1.11,12.67-1.29l8.62-0.39v-3.34
		c0-4.11-1.14-6.94-3.41-8.49c-2.27-1.54-4.95-2.31-8.04-2.31c-7.12,0-11.19,2.7-12.22,8.1l-16.46-1.54
		c1.2-7.03,4.29-12.11,9.26-15.24c4.97-3.13,11.66-4.69,20.06-4.69c5.14,0,9.52,0.62,13.12,1.86c3.6,1.24,6.49,3.02,8.68,5.34
		c2.19,2.31,3.77,5.12,4.76,8.42c0.98,3.3,1.48,7.01,1.48,11.12v42.43h-16.97V849.54z M1980.15,828.07l-7.97,0.39
		c-3.77,0.17-6.81,0.56-9.13,1.16c-2.32,0.6-4.09,1.35-5.34,2.25c-1.24,0.9-2.08,1.95-2.51,3.15c-0.43,1.2-0.64,2.53-0.64,3.99
		c0,2.23,0.77,3.99,2.31,5.27c1.54,1.29,3.69,1.93,6.43,1.93c4.63,0,8.4-1.07,11.32-3.21c1.63-1.2,2.96-2.72,3.99-4.56
		c1.03-1.84,1.54-4.13,1.54-6.88V828.07z"/>
	<path class="st2" d="M2073.11,833.73c-0.69,8.06-3.45,14.47-8.29,19.22c-4.84,4.76-12.11,7.14-21.79,7.14
		c-5.66,0-10.54-0.86-14.66-2.57c-4.12-1.71-7.48-4.11-10.09-7.2c-2.62-3.09-4.57-6.81-5.85-11.19c-1.29-4.37-1.93-9.21-1.93-14.53
		c0-5.31,0.75-10.18,2.25-14.59c1.5-4.41,3.66-8.19,6.49-11.32c2.83-3.13,6.3-5.55,10.42-7.27c4.11-1.71,8.83-2.57,14.14-2.57
		c4.54,0,8.51,0.58,11.89,1.74c3.39,1.16,6.24,2.76,8.55,4.82c2.31,2.06,4.12,4.52,5.4,7.39c1.29,2.87,2.14,6.02,2.57,9.45
		l-18.13,2.44c-0.43-3.43-1.41-6.19-2.96-8.29c-1.54-2.1-4.2-3.15-7.97-3.15c-2.74,0-5.01,0.58-6.81,1.74
		c-1.8,1.16-3.24,2.72-4.31,4.69c-1.07,1.97-1.82,4.22-2.25,6.75c-0.43,2.53-0.64,5.17-0.64,7.91c0,2.83,0.21,5.53,0.64,8.1
		c0.43,2.57,1.16,4.84,2.19,6.81c1.03,1.97,2.44,3.54,4.24,4.69s4.07,1.74,6.82,1.74c3.6,0,6.38-1.03,8.36-3.09
		c1.97-2.06,3.13-5.02,3.47-8.87H2073.11z"/>
	<path class="st2" d="M2099.6,761.72h20.45l-19.29,19.93h-16.59L2099.6,761.72z M2086.1,790.91h18v67.12h-18V790.91z"/>
	<path class="st2" d="M2124.29,804.92h-10.54v-14.02h10.54v-17.87h18v17.87h15.43v14.02h-15.43v30.99c0,3.52,0.73,5.9,2.19,7.14
		c1.46,1.24,3.34,1.86,5.66,1.86c1.2,0,2.42-0.06,3.67-0.19c1.24-0.13,2.46-0.36,3.66-0.71l2.57,13.24
		c-2.49,0.77-4.91,1.31-7.27,1.61c-2.36,0.3-4.61,0.45-6.75,0.45c-7.37,0-12.84-1.76-16.39-5.27c-3.56-3.51-5.34-9.43-5.34-17.74
		V804.92z"/>
</g>
<g>
	<path class="st2" d="M778.88,945.21h20.83l15.04,46.68l15.04-46.68h19.93l-26.49,67.12h-18L778.88,945.21z"/>
	<path class="st2" d="M887.4,945.21h17.49v8.87c5.14-7.29,12.17-10.93,21.09-10.93c9.34,0,16.33,3.17,20.96,9.52
		c4.63,6.34,6.94,15.04,6.94,26.1c0,5.32-0.67,10.16-1.99,14.53c-1.33,4.37-3.26,8.12-5.79,11.25c-2.53,3.13-5.59,5.55-9.19,7.27
		c-3.6,1.71-7.67,2.57-12.22,2.57c-3.34,0-6.67-0.6-9.97-1.8c-3.3-1.2-6.41-3.6-9.32-7.2v31.89h-18V945.21z M905.28,979.29
		c0,4.37,0.36,7.87,1.09,10.48c0.73,2.62,1.91,4.74,3.54,6.37c1.71,1.54,3.45,2.55,5.21,3.02c1.76,0.47,3.54,0.71,5.34,0.71
		c1.97,0,3.86-0.39,5.66-1.16s3.36-1.99,4.69-3.67c1.33-1.67,2.38-3.84,3.15-6.49c0.77-2.66,1.16-5.87,1.16-9.64
		c0-3.94-0.37-7.24-1.09-9.9c-0.73-2.66-1.74-4.82-3.02-6.49c-1.29-1.67-2.81-2.87-4.56-3.6c-1.76-0.73-3.62-1.09-5.59-1.09
		c-2.23,0-4.16,0.3-5.79,0.9c-1.63,0.6-3.21,1.54-4.76,2.83c-1.72,1.63-2.98,3.69-3.79,6.17c-0.82,2.49-1.22,5.66-1.22,9.52V979.29z
		"/>
	<path class="st2" d="M1007.37,1003.84c-2.66,3-5.64,5.44-8.94,7.33c-3.3,1.88-7.57,2.83-12.79,2.83c-3,0-5.85-0.39-8.55-1.16
		c-2.7-0.77-5.06-1.97-7.07-3.6c-2.02-1.63-3.62-3.71-4.82-6.24c-1.2-2.53-1.8-5.55-1.8-9.07c0-4.63,1.03-8.4,3.09-11.32
		c2.06-2.91,4.76-5.19,8.1-6.82c3.34-1.63,7.09-2.78,11.25-3.47c4.16-0.69,8.38-1.11,12.67-1.29l8.62-0.39v-3.34
		c0-4.11-1.14-6.94-3.41-8.49c-2.27-1.54-4.95-2.31-8.04-2.31c-7.12,0-11.19,2.7-12.22,8.1L967,963.08
		c1.2-7.03,4.29-12.11,9.26-15.24c4.97-3.13,11.66-4.69,20.06-4.69c5.14,0,9.52,0.62,13.12,1.86c3.6,1.24,6.49,3.02,8.68,5.34
		c2.19,2.31,3.77,5.12,4.76,8.42c0.98,3.3,1.48,7.01,1.48,11.12v42.43h-16.97V1003.84z M1006.99,982.37l-7.97,0.39
		c-3.77,0.17-6.82,0.56-9.13,1.16c-2.31,0.6-4.09,1.35-5.34,2.25c-1.24,0.9-2.08,1.95-2.51,3.15c-0.43,1.2-0.64,2.53-0.64,3.99
		c0,2.23,0.77,3.99,2.31,5.27c1.54,1.29,3.68,1.93,6.43,1.93c4.63,0,8.4-1.07,11.32-3.21c1.63-1.2,2.96-2.72,3.99-4.56
		c1.03-1.84,1.54-4.13,1.54-6.88V982.37z"/>
	<path class="st2" d="M1039.65,945.21h17.49v9.39c2.23-3.51,4.93-6.15,8.1-7.91c3.17-1.76,6.51-2.64,10.03-2.64
		c1.71,0,3.13,0.06,4.24,0.19c1.11,0.13,2.1,0.28,2.96,0.45l-2.19,16.33c-2.06-0.51-4.59-0.77-7.59-0.77
		c-1.97,0-3.86,0.24-5.66,0.71c-1.8,0.47-3.43,1.35-4.89,2.64c-1.54,1.37-2.68,2.92-3.41,4.63c-0.73,1.72-1.09,3.47-1.09,5.27v38.83
		h-18V945.21z"/>
	<path class="st2" d="M1100.08,959.23h-10.54v-14.02h10.54v-17.87h18v17.87h15.43v14.02h-15.43v30.99c0,3.52,0.73,5.9,2.19,7.14
		c1.46,1.24,3.34,1.86,5.66,1.86c1.2,0,2.42-0.06,3.67-0.19c1.24-0.13,2.46-0.36,3.66-0.71l2.57,13.24
		c-2.49,0.77-4.91,1.31-7.27,1.61c-2.36,0.3-4.61,0.45-6.75,0.45c-7.37,0-12.84-1.76-16.39-5.27c-3.56-3.51-5.34-9.43-5.34-17.74
		V959.23z"/>
	<path class="st2" d="M1144.57,920.52h18.52v16.2h-18.52V920.52z M1144.83,945.21h18v67.12h-18V945.21z"/>
	<path class="st2" d="M1239.21,988.03c-0.69,8.06-3.45,14.47-8.29,19.22c-4.84,4.76-12.11,7.14-21.8,7.14
		c-5.66,0-10.54-0.86-14.66-2.57s-7.48-4.11-10.09-7.2c-2.62-3.09-4.56-6.81-5.85-11.19c-1.29-4.37-1.93-9.21-1.93-14.53
		c0-5.31,0.75-10.18,2.25-14.59c1.5-4.41,3.66-8.19,6.49-11.32c2.83-3.13,6.3-5.55,10.42-7.27c4.11-1.71,8.83-2.57,14.14-2.57
		c4.54,0,8.51,0.58,11.89,1.74c3.39,1.16,6.24,2.76,8.55,4.82c2.31,2.06,4.11,4.52,5.4,7.39c1.29,2.87,2.14,6.02,2.57,9.45
		l-18.13,2.44c-0.43-3.43-1.41-6.19-2.96-8.29c-1.54-2.1-4.2-3.15-7.97-3.15c-2.74,0-5.01,0.58-6.81,1.74s-3.24,2.72-4.31,4.69
		c-1.07,1.97-1.82,4.22-2.25,6.75c-0.43,2.53-0.64,5.17-0.64,7.91c0,2.83,0.21,5.53,0.64,8.1c0.43,2.57,1.16,4.84,2.19,6.81
		c1.03,1.97,2.44,3.54,4.24,4.69s4.07,1.74,6.81,1.74c3.6,0,6.39-1.03,8.36-3.09c1.97-2.06,3.13-5.02,3.47-8.87H1239.21z"/>
	<path class="st2" d="M1251.94,920.52h18.52v16.2h-18.52V920.52z M1252.19,945.21h18v67.12h-18V945.21z"/>
	<path class="st2" d="M1286.27,945.21h17.49v8.87c5.14-7.29,12.17-10.93,21.09-10.93c9.34,0,16.33,3.17,20.96,9.52
		c4.63,6.34,6.94,15.04,6.94,26.1c0,5.32-0.67,10.16-1.99,14.53c-1.33,4.37-3.26,8.12-5.79,11.25c-2.53,3.13-5.59,5.55-9.19,7.27
		c-3.6,1.71-7.67,2.57-12.22,2.57c-3.34,0-6.67-0.6-9.97-1.8c-3.3-1.2-6.41-3.6-9.32-7.2v31.89h-18V945.21z M1304.14,979.29
		c0,4.37,0.36,7.87,1.09,10.48c0.73,2.62,1.91,4.74,3.54,6.37c1.71,1.54,3.45,2.55,5.21,3.02c1.76,0.47,3.54,0.71,5.34,0.71
		c1.97,0,3.86-0.39,5.66-1.16s3.36-1.99,4.69-3.67c1.33-1.67,2.38-3.84,3.15-6.49c0.77-2.66,1.16-5.87,1.16-9.64
		c0-3.94-0.37-7.24-1.09-9.9c-0.73-2.66-1.74-4.82-3.02-6.49c-1.29-1.67-2.81-2.87-4.56-3.6c-1.76-0.73-3.62-1.09-5.59-1.09
		c-2.23,0-4.16,0.3-5.79,0.9c-1.63,0.6-3.21,1.54-4.76,2.83c-1.72,1.63-2.98,3.69-3.79,6.17c-0.82,2.49-1.22,5.66-1.22,9.52V979.29z
		"/>
	<path class="st2" d="M1406.24,1003.84c-2.66,3-5.64,5.44-8.94,7.33c-3.3,1.88-7.57,2.83-12.79,2.83c-3,0-5.85-0.39-8.55-1.16
		c-2.7-0.77-5.06-1.97-7.07-3.6c-2.02-1.63-3.62-3.71-4.82-6.24c-1.2-2.53-1.8-5.55-1.8-9.07c0-4.63,1.03-8.4,3.09-11.32
		c2.06-2.91,4.76-5.19,8.1-6.82c3.34-1.63,7.09-2.78,11.25-3.47c4.16-0.69,8.38-1.11,12.67-1.29l8.62-0.39v-3.34
		c0-4.11-1.14-6.94-3.41-8.49c-2.27-1.54-4.95-2.31-8.04-2.31c-7.12,0-11.19,2.7-12.22,8.1l-16.46-1.54
		c1.2-7.03,4.29-12.11,9.26-15.24c4.97-3.13,11.66-4.69,20.06-4.69c5.14,0,9.52,0.62,13.12,1.86c3.6,1.24,6.49,3.02,8.68,5.34
		c2.19,2.31,3.77,5.12,4.76,8.42c0.98,3.3,1.48,7.01,1.48,11.12v42.43h-16.97V1003.84z M1405.85,982.37l-7.97,0.39
		c-3.77,0.17-6.82,0.56-9.13,1.16c-2.31,0.6-4.09,1.35-5.34,2.25c-1.24,0.9-2.08,1.95-2.51,3.15c-0.43,1.2-0.64,2.53-0.64,3.99
		c0,2.23,0.77,3.99,2.31,5.27c1.54,1.29,3.68,1.93,6.43,1.93c4.63,0,8.4-1.07,11.32-3.21c1.63-1.2,2.96-2.72,3.99-4.56
		c1.03-1.84,1.54-4.13,1.54-6.88V982.37z"/>
	<path class="st2" d="M1442.63,959.23h-10.54v-14.02h10.54v-17.87h18v17.87h15.43v14.02h-15.43v30.99c0,3.52,0.73,5.9,2.19,7.14
		c1.46,1.24,3.34,1.86,5.66,1.86c1.2,0,2.42-0.06,3.67-0.19c1.24-0.13,2.46-0.36,3.66-0.71l2.57,13.24
		c-2.49,0.77-4.91,1.31-7.27,1.61c-2.36,0.3-4.61,0.45-6.75,0.45c-7.37,0-12.84-1.76-16.39-5.27c-3.56-3.51-5.34-9.43-5.34-17.74
		V959.23z"/>
	<path class="st2" d="M1500.88,916.02h20.44l-19.29,19.93h-16.59L1500.88,916.02z M1487.37,945.21h18v67.12h-18V945.21z"/>
	<path class="st2" d="M1514.5,945.21h20.83l15.04,46.68l15.04-46.68h19.93l-26.49,67.12h-18L1514.5,945.21z"/>
	<path class="st2" d="M1594.35,945.21h17.49v9.26c2.66-3.94,5.81-6.81,9.45-8.62c3.64-1.8,7.44-2.7,11.38-2.7
		c7.63,0,13.29,1.99,16.97,5.98c3.68,3.99,5.53,10.27,5.53,18.84v44.36h-18v-41.92c0-4.71-0.9-7.93-2.7-9.64
		c-1.8-1.71-4.2-2.57-7.2-2.57c-2.31,0-4.31,0.34-5.98,1.03c-1.67,0.69-3.24,1.67-4.69,2.96c-1.2,1.2-2.21,2.64-3.02,4.31
		c-0.82,1.67-1.22,3.49-1.22,5.46v40.38h-18V945.21z"/>
</g>
<g>
	<defs>
		<rect id="SVGID_00000029758516945779499710000011453996857054880412_" width="3200" height="2800"/>
	</defs>
	<clipPath id="SVGID_00000017490488005162561240000007798586502608950685_">
		<use xlink:href="#SVGID_00000029758516945779499710000011453996857054880412_"  style="overflow:visible;"/>
	</clipPath>
	<path style="clip-path:url(#SVGID_00000017490488005162561240000007798586502608950685_);fill:#F48481;" d="M1673.83,1004.53
		c-14.94-14.94-14.94-39.15,0-54.08c14.94-14.94,39.15-14.94,54.08,0c14.93,14.93,14.93,39.14,0,54.08
		C1712.98,1019.47,1688.77,1019.47,1673.83,1004.53"/>
</g>
<polyline class="st4" points="1729.42,1003.03 1700.87,1032.23 1700.87,1007.26 1727.94,1004.51 "/>
<g>
	<path class="st2" d="M1747.08,945.21h17.49v9c2.49-3.77,5.4-6.56,8.74-8.36c3.34-1.8,6.86-2.7,10.54-2.7
		c4.89,0,8.87,0.99,11.96,2.96c3.09,1.97,5.27,4.84,6.56,8.62c3.09-4.11,6.34-7.07,9.77-8.87c3.43-1.8,7.2-2.7,11.32-2.7
		c6.94,0,12.15,1.91,15.62,5.72c3.47,3.82,5.21,10.01,5.21,18.58v44.88h-18V969.9c0-2.4-0.22-4.35-0.64-5.85
		c-0.43-1.5-1.01-2.68-1.74-3.54c-0.73-0.86-1.61-1.46-2.64-1.8c-1.03-0.34-2.1-0.51-3.21-0.51c-1.8,0-3.45,0.3-4.95,0.9
		c-1.5,0.6-2.98,1.63-4.44,3.09c-1.2,1.2-2.17,2.57-2.89,4.11c-0.73,1.54-1.09,3.17-1.09,4.89v41.15h-18V969.9
		c0-2.4-0.22-4.35-0.64-5.85c-0.43-1.5-1.01-2.68-1.74-3.54c-0.73-0.86-1.61-1.46-2.64-1.8c-1.03-0.34-2.1-0.51-3.21-0.51
		c-1.8,0-3.45,0.3-4.95,0.9c-1.5,0.6-2.98,1.63-4.44,3.09c-1.2,1.2-2.17,2.64-2.89,4.31c-0.73,1.67-1.09,3.49-1.09,5.46v40.38h-18
		V945.21z"/>
	<path class="st2" d="M1888.4,920.52h18v91.81h-18V920.52z"/>
	<path class="st2" d="M1936.1,916.02h20.45l-19.29,19.93h-16.59L1936.1,916.02z M1922.6,945.21h18v67.12h-18V945.21z"/>
	<path class="st2" d="M2003.22,1003.46c-5.14,7.29-12.09,10.93-20.83,10.93c-9.43,0-16.46-3.17-21.09-9.52
		c-4.63-6.34-6.94-15.13-6.94-26.36c0-5.23,0.66-10.01,1.99-14.34c1.33-4.33,3.24-8.06,5.72-11.19c2.49-3.13,5.53-5.55,9.13-7.27
		c3.6-1.71,7.67-2.57,12.21-2.57c3.34,0,6.67,0.6,9.97,1.8c3.3,1.2,6.41,3.52,9.32,6.94v-31.37h18v91.81h-17.49V1003.46z
		 M2002.84,978c0-4.29-0.37-7.71-1.09-10.29c-0.73-2.57-1.91-4.67-3.54-6.3c-1.54-1.54-3.24-2.55-5.08-3.02
		c-1.84-0.47-3.67-0.71-5.46-0.71c-1.97,0-3.84,0.39-5.59,1.16c-1.76,0.77-3.3,1.97-4.63,3.6c-1.33,1.63-2.38,3.77-3.15,6.43
		c-0.77,2.66-1.16,5.83-1.16,9.52c0,4.03,0.36,7.39,1.09,10.09c0.73,2.7,1.74,4.89,3.02,6.56c1.29,1.67,2.79,2.87,4.5,3.6
		c1.71,0.73,3.56,1.09,5.53,1.09c4.29,0,7.8-1.24,10.54-3.73c1.71-1.71,2.98-3.79,3.79-6.24c0.81-2.44,1.22-5.59,1.22-9.45V978z"/>
	<path class="st2" d="M2098.12,991.37c-1.2,7.54-4.22,13.27-9.07,17.17c-4.84,3.9-11.89,5.85-21.15,5.85
		c-11.14,0-19.53-3.09-25.14-9.26c-5.62-6.17-8.42-14.92-8.42-26.23c0-5.66,0.81-10.69,2.44-15.11c1.63-4.41,3.92-8.17,6.88-11.25
		c2.96-3.09,6.49-5.42,10.61-7.01c4.11-1.59,8.66-2.38,13.63-2.38c10.29,0,18.02,2.96,23.21,8.87c5.19,5.92,7.78,13.89,7.78,23.92
		v7.2h-46.55c0.17,5.4,1.54,9.62,4.11,12.67c2.57,3.04,6.43,4.56,11.57,4.56c7.11,0,11.32-3,12.6-9H2098.12z M2081.53,971.31
		c0-4.63-1.14-8.23-3.41-10.8c-2.27-2.57-5.81-3.86-10.61-3.86c-2.4,0-4.5,0.39-6.3,1.16s-3.32,1.82-4.56,3.15
		c-1.24,1.33-2.21,2.87-2.89,4.63c-0.69,1.76-1.07,3.66-1.16,5.72H2081.53z"/>
	<path class="st2" d="M2112.39,945.21h17.49v9.39c2.23-3.51,4.93-6.15,8.1-7.91c3.17-1.76,6.51-2.64,10.03-2.64
		c1.71,0,3.13,0.06,4.24,0.19c1.11,0.13,2.1,0.28,2.96,0.45l-2.19,16.33c-2.06-0.51-4.59-0.77-7.59-0.77
		c-1.97,0-3.86,0.24-5.66,0.71c-1.8,0.47-3.43,1.35-4.89,2.64c-1.54,1.37-2.68,2.92-3.41,4.63c-0.73,1.72-1.09,3.47-1.09,5.27v38.83
		h-18V945.21z"/>
	<path class="st2" d="M2178.1,990.99c0.6,3.94,2.19,6.52,4.76,7.72c2.57,1.2,5.66,1.8,9.26,1.8c4.29,0,7.35-0.53,9.19-1.61
		c1.84-1.07,2.76-2.81,2.76-5.21c0-1.71-0.58-3.21-1.74-4.5c-1.16-1.29-3.37-2.19-6.62-2.7l-9.26-1.54
		c-8.14-1.29-14.21-3.49-18.19-6.62c-3.99-3.13-5.98-7.86-5.98-14.21c0-3.26,0.71-6.17,2.12-8.74c1.42-2.57,3.41-4.76,5.98-6.56
		c2.57-1.8,5.64-3.19,9.19-4.18c3.56-0.98,7.48-1.48,11.77-1.48c5.31,0,9.77,0.54,13.37,1.61c3.6,1.07,6.54,2.51,8.81,4.31
		c2.27,1.8,3.99,3.94,5.14,6.43c1.16,2.49,1.99,5.14,2.51,7.97l-16.07,2.06c-0.77-3.09-2.12-5.36-4.05-6.81
		c-1.93-1.46-5.04-2.19-9.32-2.19c-2.4,0-4.39,0.19-5.98,0.58c-1.59,0.39-2.83,0.88-3.73,1.48c-0.9,0.6-1.54,1.29-1.93,2.06
		s-0.58,1.5-0.58,2.19c0,2.14,0.66,3.71,1.99,4.69c1.33,0.99,3.92,1.82,7.78,2.51l8.49,1.41c4.71,0.77,8.62,1.76,11.7,2.96
		c3.09,1.2,5.55,2.68,7.39,4.44c1.84,1.76,3.13,3.84,3.86,6.24c0.73,2.4,1.09,5.19,1.09,8.36c0,6.35-2.4,11.42-7.2,15.24
		c-4.8,3.81-12.22,5.72-22.25,5.72c-4.03,0-7.87-0.37-11.51-1.09c-3.64-0.73-6.9-1.99-9.77-3.79c-2.87-1.8-5.23-4.2-7.07-7.2
		c-1.84-3-2.89-6.77-3.15-11.32H2178.1z"/>
	<path class="st2" d="M2238.27,959.23h-10.54v-14.02h10.54v-17.87h18v17.87h15.43v14.02h-15.43v30.99c0,3.52,0.73,5.9,2.19,7.14
		c1.46,1.24,3.34,1.86,5.66,1.86c1.2,0,2.42-0.06,3.67-0.19c1.24-0.13,2.46-0.36,3.66-0.71l2.57,13.24
		c-2.49,0.77-4.91,1.31-7.27,1.61c-2.36,0.3-4.61,0.45-6.75,0.45c-7.37,0-12.84-1.76-16.39-5.27c-3.56-3.51-5.34-9.43-5.34-17.74
		V959.23z"/>
	<path class="st2" d="M2278.39,945.21h20.83l15.04,46.68l15.04-46.68h19.93l-26.49,67.12h-18L2278.39,945.21z"/>
	<path class="st2" d="M2415.98,991.37c-1.2,7.54-4.22,13.27-9.07,17.17c-4.84,3.9-11.89,5.85-21.15,5.85
		c-11.14,0-19.53-3.09-25.14-9.26c-5.62-6.17-8.42-14.92-8.42-26.23c0-5.66,0.81-10.69,2.44-15.11c1.63-4.41,3.92-8.17,6.88-11.25
		c2.96-3.09,6.49-5.42,10.61-7.01c4.11-1.59,8.66-2.38,13.63-2.38c10.29,0,18.02,2.96,23.21,8.87c5.19,5.92,7.78,13.89,7.78,23.92
		v7.2h-46.55c0.17,5.4,1.54,9.62,4.11,12.67c2.57,3.04,6.43,4.56,11.57,4.56c7.11,0,11.32-3,12.6-9H2415.98z M2399.39,971.31
		c0-4.63-1.14-8.23-3.41-10.8c-2.27-2.57-5.81-3.86-10.61-3.86c-2.4,0-4.5,0.39-6.3,1.16s-3.32,1.82-4.56,3.15
		c-1.24,1.33-2.21,2.87-2.89,4.63c-0.69,1.76-1.07,3.66-1.16,5.72H2399.39z"/>
</g>
<g>
	<path class="st2" d="M1169.13,1158.15c-2.66,3-5.64,5.44-8.94,7.33c-3.3,1.88-7.57,2.83-12.79,2.83c-3,0-5.85-0.39-8.55-1.16
		c-2.7-0.77-5.06-1.97-7.07-3.6c-2.02-1.63-3.62-3.71-4.82-6.24c-1.2-2.53-1.8-5.55-1.8-9.07c0-4.63,1.03-8.4,3.09-11.32
		c2.06-2.91,4.76-5.19,8.1-6.82c3.34-1.63,7.09-2.78,11.25-3.47c4.16-0.69,8.38-1.11,12.67-1.29l8.62-0.39v-3.34
		c0-4.11-1.14-6.94-3.41-8.49c-2.27-1.54-4.95-2.31-8.04-2.31c-7.12,0-11.19,2.7-12.22,8.1l-16.46-1.54
		c1.2-7.03,4.29-12.11,9.26-15.24c4.97-3.13,11.66-4.69,20.06-4.69c5.14,0,9.52,0.62,13.12,1.86c3.6,1.24,6.49,3.02,8.68,5.34
		c2.19,2.31,3.77,5.12,4.76,8.42c0.98,3.3,1.48,7.01,1.48,11.12v42.43h-16.97V1158.15z M1168.75,1136.67l-7.97,0.39
		c-3.77,0.17-6.82,0.56-9.13,1.16c-2.31,0.6-4.09,1.35-5.34,2.25c-1.24,0.9-2.08,1.95-2.51,3.15c-0.43,1.2-0.64,2.53-0.64,3.99
		c0,2.23,0.77,3.99,2.31,5.27c1.54,1.29,3.68,1.93,6.43,1.93c4.63,0,8.4-1.07,11.32-3.21c1.63-1.2,2.96-2.72,3.99-4.56
		c1.03-1.84,1.54-4.13,1.54-6.88V1136.67z"/>
	<path class="st2" d="M1276.63,1157.76c-5.14,7.29-12.09,10.93-20.83,10.93c-9.43,0-16.46-3.17-21.09-9.52
		c-4.63-6.34-6.94-15.13-6.94-26.36c0-5.23,0.66-10.01,1.99-14.34c1.33-4.33,3.23-8.06,5.72-11.19c2.49-3.13,5.53-5.55,9.13-7.27
		c3.6-1.71,7.67-2.57,12.22-2.57c3.34,0,6.66,0.6,9.97,1.8c3.3,1.2,6.41,3.52,9.32,6.94v-31.37h18v91.81h-17.49V1157.76z
		 M1276.24,1132.3c0-4.29-0.37-7.71-1.09-10.29c-0.73-2.57-1.91-4.67-3.54-6.3c-1.54-1.54-3.24-2.55-5.08-3.02
		c-1.84-0.47-3.66-0.71-5.46-0.71c-1.97,0-3.84,0.39-5.59,1.16c-1.76,0.77-3.3,1.97-4.63,3.6c-1.33,1.63-2.38,3.77-3.15,6.43
		c-0.77,2.66-1.16,5.83-1.16,9.52c0,4.03,0.36,7.39,1.09,10.09c0.73,2.7,1.74,4.89,3.02,6.56c1.29,1.67,2.78,2.87,4.5,3.6
		c1.71,0.73,3.56,1.09,5.53,1.09c4.29,0,7.8-1.24,10.54-3.73c1.71-1.71,2.98-3.79,3.79-6.24c0.81-2.44,1.22-5.59,1.22-9.45V1132.3z"
		/>
	<path class="st2" d="M1371.52,1145.67c-1.2,7.54-4.22,13.27-9.07,17.17c-4.84,3.9-11.89,5.85-21.15,5.85
		c-11.15,0-19.52-3.09-25.14-9.26c-5.62-6.17-8.42-14.92-8.42-26.23c0-5.66,0.81-10.69,2.44-15.11c1.63-4.41,3.92-8.17,6.88-11.25
		c2.96-3.09,6.49-5.42,10.61-7.01c4.11-1.59,8.66-2.38,13.63-2.38c10.29,0,18.02,2.96,23.21,8.87c5.19,5.92,7.78,13.89,7.78,23.92
		v7.2h-46.55c0.17,5.4,1.54,9.62,4.11,12.67c2.57,3.04,6.43,4.56,11.57,4.56c7.11,0,11.32-3,12.6-9H1371.52z M1354.93,1125.62
		c0-4.63-1.14-8.23-3.41-10.8c-2.27-2.57-5.81-3.86-10.61-3.86c-2.4,0-4.5,0.39-6.3,1.16s-3.32,1.82-4.56,3.15
		c-1.24,1.33-2.21,2.87-2.89,4.63c-0.69,1.76-1.07,3.66-1.16,5.72H1354.93z"/>
	<path class="st2" d="M1385.79,1099.51h17.49v8.87c5.14-7.29,12.17-10.93,21.09-10.93c9.34,0,16.33,3.17,20.96,9.52
		c4.63,6.34,6.94,15.04,6.94,26.1c0,5.32-0.67,10.16-1.99,14.53c-1.33,4.37-3.26,8.12-5.79,11.25c-2.53,3.13-5.59,5.55-9.19,7.27
		c-3.6,1.71-7.67,2.57-12.22,2.57c-3.34,0-6.67-0.6-9.97-1.8c-3.3-1.2-6.41-3.6-9.32-7.2v31.89h-18V1099.51z M1403.67,1133.59
		c0,4.37,0.36,7.87,1.09,10.48c0.73,2.62,1.91,4.74,3.54,6.37c1.71,1.54,3.45,2.55,5.21,3.02c1.76,0.47,3.54,0.71,5.34,0.71
		c1.97,0,3.86-0.39,5.66-1.16s3.36-1.99,4.69-3.67c1.33-1.67,2.38-3.84,3.15-6.49c0.77-2.66,1.16-5.87,1.16-9.64
		c0-3.94-0.37-7.24-1.09-9.9c-0.73-2.66-1.74-4.82-3.02-6.49c-1.29-1.67-2.81-2.87-4.56-3.6c-1.76-0.73-3.62-1.09-5.59-1.09
		c-2.23,0-4.16,0.3-5.79,0.9c-1.63,0.6-3.21,1.54-4.76,2.83c-1.72,1.63-2.98,3.69-3.79,6.17c-0.82,2.49-1.22,5.66-1.22,9.52V1133.59
		z"/>
</g>
<g>
	<defs>
		<rect id="SVGID_00000128465217030959488970000014017289791794421930_" width="3200" height="2800"/>
	</defs>
	<clipPath id="SVGID_00000080181084223829938700000007066789960996885388_">
		<use xlink:href="#SVGID_00000128465217030959488970000014017289791794421930_"  style="overflow:visible;"/>
	</clipPath>
	<path style="clip-path:url(#SVGID_00000080181084223829938700000007066789960996885388_);fill:#F48481;" d="M1469.13,1158.84
		c-14.94-14.94-14.94-39.15,0-54.08c14.94-14.94,39.15-14.94,54.08,0c14.93,14.93,14.93,39.14,0,54.08
		C1508.28,1173.77,1484.07,1173.77,1469.13,1158.84"/>
</g>
<polyline class="st4" points="1524.71,1157.33 1496.17,1186.54 1496.17,1161.56 1523.24,1158.81 "/>
<g>
	<path class="st2" d="M1542.51,1074.82h18v91.81h-18V1074.82z"/>
	<path class="st2" d="M1616.45,1158.15c-2.66,3-5.64,5.44-8.94,7.33c-3.3,1.88-7.57,2.83-12.79,2.83c-3,0-5.85-0.39-8.55-1.16
		c-2.7-0.77-5.06-1.97-7.07-3.6c-2.02-1.63-3.62-3.71-4.82-6.24c-1.2-2.53-1.8-5.55-1.8-9.07c0-4.63,1.03-8.4,3.09-11.32
		c2.06-2.91,4.76-5.19,8.1-6.82c3.34-1.63,7.09-2.78,11.25-3.47c4.16-0.69,8.38-1.11,12.67-1.29l8.62-0.39v-3.34
		c0-4.11-1.14-6.94-3.41-8.49s-4.95-2.31-8.04-2.31c-7.12,0-11.19,2.7-12.22,8.1l-16.46-1.54c1.2-7.03,4.29-12.11,9.26-15.24
		c4.97-3.13,11.66-4.69,20.06-4.69c5.14,0,9.52,0.62,13.12,1.86c3.6,1.24,6.49,3.02,8.68,5.34c2.19,2.31,3.77,5.12,4.76,8.42
		c0.98,3.3,1.48,7.01,1.48,11.12v42.43h-16.97V1158.15z M1616.06,1136.67l-7.97,0.39c-3.77,0.17-6.81,0.56-9.13,1.16
		c-2.31,0.6-4.09,1.35-5.34,2.25c-1.24,0.9-2.08,1.95-2.51,3.15c-0.43,1.2-0.64,2.53-0.64,3.99c0,2.23,0.77,3.99,2.31,5.27
		c1.54,1.29,3.68,1.93,6.43,1.93c4.63,0,8.4-1.07,11.31-3.21c1.63-1.2,2.96-2.72,3.99-4.56c1.03-1.84,1.54-4.13,1.54-6.88V1136.67z"
		/>
	<path class="st2" d="M1648.72,1099.51h17.49v9.39c2.23-3.51,4.93-6.15,8.1-7.91c3.17-1.76,6.51-2.64,10.03-2.64
		c1.71,0,3.13,0.06,4.24,0.19c1.11,0.13,2.1,0.28,2.96,0.45l-2.19,16.33c-2.06-0.51-4.59-0.77-7.59-0.77
		c-1.97,0-3.86,0.24-5.66,0.71c-1.8,0.47-3.43,1.35-4.89,2.64c-1.54,1.37-2.68,2.92-3.41,4.63c-0.73,1.72-1.09,3.47-1.09,5.27v38.83
		h-18V1099.51z"/>
	<path class="st2" d="M1702.47,1074.82h18.52v16.2h-18.52V1074.82z M1702.72,1099.51h18v67.12h-18V1099.51z"/>
	<path class="st2" d="M1733.58,1154.42l32.66-40.89h-32.02v-14.02h54.91v12.22l-32.53,40.89h34.08l-1.67,14.02h-55.42V1154.42z"/>
	<path class="st2" d="M1842.11,1158.15c-2.66,3-5.64,5.44-8.94,7.33c-3.3,1.88-7.57,2.83-12.79,2.83c-3,0-5.85-0.39-8.55-1.16
		s-5.06-1.97-7.07-3.6c-2.01-1.63-3.62-3.71-4.82-6.24c-1.2-2.53-1.8-5.55-1.8-9.07c0-4.63,1.03-8.4,3.09-11.32
		c2.06-2.91,4.76-5.19,8.1-6.82c3.34-1.63,7.09-2.78,11.25-3.47c4.16-0.69,8.38-1.11,12.67-1.29l8.62-0.39v-3.34
		c0-4.11-1.14-6.94-3.41-8.49c-2.27-1.54-4.95-2.31-8.04-2.31c-7.12,0-11.19,2.7-12.22,8.1l-16.46-1.54
		c1.2-7.03,4.29-12.11,9.26-15.24c4.97-3.13,11.66-4.69,20.06-4.69c5.14,0,9.52,0.62,13.12,1.86c3.6,1.24,6.49,3.02,8.68,5.34
		c2.19,2.31,3.77,5.12,4.76,8.42c0.98,3.3,1.48,7.01,1.48,11.12v42.43h-16.97V1158.15z M1841.73,1136.67l-7.97,0.39
		c-3.77,0.17-6.81,0.56-9.13,1.16c-2.32,0.6-4.09,1.35-5.34,2.25c-1.24,0.9-2.08,1.95-2.51,3.15c-0.43,1.2-0.64,2.53-0.64,3.99
		c0,2.23,0.77,3.99,2.31,5.27c1.54,1.29,3.69,1.93,6.43,1.93c4.63,0,8.4-1.07,11.32-3.21c1.63-1.2,2.96-2.72,3.99-4.56
		c1.03-1.84,1.54-4.13,1.54-6.88V1136.67z M1833.75,1070.32h20.45l-19.29,19.93h-16.59L1833.75,1070.32z"/>
	<path class="st2" d="M1934.69,1142.33c-0.69,8.06-3.45,14.47-8.29,19.22c-4.84,4.76-12.11,7.14-21.79,7.14
		c-5.66,0-10.54-0.86-14.66-2.57c-4.12-1.71-7.48-4.11-10.09-7.2c-2.62-3.09-4.57-6.81-5.85-11.19c-1.29-4.37-1.93-9.21-1.93-14.53
		c0-5.31,0.75-10.18,2.25-14.59c1.5-4.41,3.66-8.19,6.49-11.32c2.83-3.13,6.3-5.55,10.42-7.27c4.11-1.71,8.83-2.57,14.14-2.57
		c4.54,0,8.51,0.58,11.89,1.74c3.39,1.16,6.24,2.76,8.55,4.82c2.31,2.06,4.12,4.52,5.4,7.39c1.29,2.87,2.14,6.02,2.57,9.45
		l-18.13,2.44c-0.43-3.43-1.41-6.19-2.96-8.29c-1.54-2.1-4.2-3.15-7.97-3.15c-2.74,0-5.01,0.58-6.81,1.74
		c-1.8,1.16-3.24,2.72-4.31,4.69c-1.07,1.97-1.82,4.22-2.25,6.75c-0.43,2.53-0.64,5.17-0.64,7.91c0,2.83,0.21,5.53,0.64,8.1
		c0.43,2.57,1.16,4.84,2.19,6.81c1.03,1.97,2.44,3.54,4.24,4.69s4.07,1.74,6.82,1.74c3.6,0,6.38-1.03,8.36-3.09
		c1.97-2.06,3.13-5.02,3.47-8.87H1934.69z"/>
	<path class="st2" d="M1947.42,1074.82h18.52v16.2h-18.52V1074.82z M1947.68,1099.51h18v67.12h-18V1099.51z"/>
	<path class="st2" d="M2043.21,1145.67c-1.2,7.54-4.22,13.27-9.07,17.17c-4.84,3.9-11.89,5.85-21.15,5.85
		c-11.14,0-19.53-3.09-25.14-9.26c-5.62-6.17-8.42-14.92-8.42-26.23c0-5.66,0.81-10.69,2.44-15.11c1.63-4.41,3.92-8.17,6.88-11.25
		c2.96-3.09,6.49-5.42,10.61-7.01c4.11-1.59,8.66-2.38,13.63-2.38c10.29,0,18.02,2.96,23.21,8.87c5.19,5.92,7.78,13.89,7.78,23.92
		v7.2h-46.55c0.17,5.4,1.54,9.62,4.11,12.67c2.57,3.04,6.43,4.56,11.57,4.56c7.11,0,11.32-3,12.6-9H2043.21z M2026.63,1125.62
		c0-4.63-1.14-8.23-3.41-10.8c-2.27-2.57-5.81-3.86-10.61-3.86c-2.4,0-4.5,0.39-6.3,1.16s-3.32,1.82-4.56,3.15
		c-1.24,1.33-2.21,2.87-2.89,4.63c-0.69,1.76-1.07,3.66-1.16,5.72H2026.63z"/>
	<path class="st2" d="M2055.3,1145.93h17.49l-7.97,32.79h-13.76L2055.3,1145.93z"/>
</g>
<g>
	<path class="st2" d="M919.43,1253.82h17.49v8.87c5.14-7.29,12.17-10.93,21.09-10.93c9.34,0,16.33,3.17,20.96,9.52
		c4.63,6.34,6.94,15.04,6.94,26.1c0,5.32-0.67,10.16-1.99,14.53c-1.33,4.37-3.26,8.12-5.79,11.25c-2.53,3.13-5.59,5.55-9.19,7.27
		c-3.6,1.71-7.67,2.57-12.22,2.57c-3.34,0-6.67-0.6-9.97-1.8c-3.3-1.2-6.41-3.6-9.32-7.2v31.89h-18V1253.82z M937.31,1287.89
		c0,4.37,0.36,7.87,1.09,10.48c0.73,2.62,1.91,4.74,3.54,6.37c1.71,1.54,3.45,2.55,5.21,3.02c1.76,0.47,3.54,0.71,5.34,0.71
		c1.97,0,3.86-0.39,5.66-1.16s3.36-1.99,4.69-3.67c1.33-1.67,2.38-3.84,3.15-6.49c0.77-2.66,1.16-5.87,1.16-9.64
		c0-3.94-0.37-7.24-1.09-9.9c-0.73-2.66-1.74-4.82-3.02-6.49c-1.29-1.67-2.81-2.87-4.56-3.6c-1.76-0.73-3.62-1.09-5.59-1.09
		c-2.23,0-4.16,0.3-5.79,0.9c-1.63,0.6-3.21,1.54-4.76,2.83c-1.72,1.63-2.98,3.69-3.79,6.17c-0.82,2.49-1.22,5.66-1.22,9.52V1287.89
		z"/>
</g>
<g>
	<defs>
		<rect id="SVGID_00000132051417374129261590000013718568833927863452_" width="3200" height="2800"/>
	</defs>
	<clipPath id="SVGID_00000151545201516064502270000006488741744666899124_">
		<use xlink:href="#SVGID_00000132051417374129261590000013718568833927863452_"  style="overflow:visible;"/>
	</clipPath>
	<path style="clip-path:url(#SVGID_00000151545201516064502270000006488741744666899124_);fill:#F48481;" d="M1002.77,1313.14
		c-14.94-14.94-14.94-39.15,0-54.08c14.94-14.94,39.15-14.94,54.08,0c14.93,14.93,14.93,39.14,0,54.08
		C1041.92,1328.07,1017.71,1328.07,1002.77,1313.14"/>
</g>
<polyline class="st4" points="1058.35,1311.64 1029.81,1340.84 1029.81,1315.86 1056.88,1313.12 "/>
<g>
	<path class="st2" d="M1122.57,1312.06c-5.14,7.29-12.09,10.93-20.83,10.93c-9.43,0-16.46-3.17-21.09-9.52
		c-4.63-6.34-6.94-15.13-6.94-26.36c0-5.23,0.66-10.01,1.99-14.34c1.33-4.33,3.23-8.06,5.72-11.19c2.49-3.13,5.53-5.55,9.13-7.27
		c3.6-1.71,7.67-2.57,12.22-2.57c3.34,0,6.66,0.6,9.97,1.8c3.3,1.2,6.41,3.52,9.32,6.94v-31.37h18v91.81h-17.49V1312.06z
		 M1122.18,1286.6c0-4.29-0.37-7.71-1.09-10.29c-0.73-2.57-1.91-4.67-3.54-6.3c-1.54-1.54-3.24-2.55-5.08-3.02
		c-1.84-0.47-3.66-0.71-5.46-0.71c-1.97,0-3.84,0.39-5.59,1.16c-1.76,0.77-3.3,1.97-4.63,3.6c-1.33,1.63-2.38,3.77-3.15,6.43
		c-0.77,2.66-1.16,5.83-1.16,9.52c0,4.03,0.36,7.39,1.09,10.09c0.73,2.7,1.74,4.89,3.02,6.56c1.29,1.67,2.78,2.87,4.5,3.6
		c1.71,0.73,3.56,1.09,5.53,1.09c4.29,0,7.8-1.24,10.54-3.73c1.71-1.71,2.98-3.79,3.79-6.24c0.81-2.44,1.22-5.59,1.22-9.45V1286.6z"
		/>
	<path class="st2" d="M1156,1253.82h17.49v8.87c5.14-7.29,12.17-10.93,21.09-10.93c9.34,0,16.33,3.17,20.96,9.52
		c4.63,6.34,6.94,15.04,6.94,26.1c0,5.32-0.67,10.16-1.99,14.53c-1.33,4.37-3.26,8.12-5.79,11.25c-2.53,3.13-5.59,5.55-9.19,7.27
		c-3.6,1.71-7.67,2.57-12.22,2.57c-3.34,0-6.67-0.6-9.97-1.8c-3.3-1.2-6.41-3.6-9.32-7.2v31.89h-18V1253.82z M1173.87,1287.89
		c0,4.37,0.36,7.87,1.09,10.48c0.73,2.62,1.91,4.74,3.54,6.37c1.71,1.54,3.45,2.55,5.21,3.02c1.76,0.47,3.54,0.71,5.34,0.71
		c1.97,0,3.86-0.39,5.66-1.16s3.36-1.99,4.69-3.67c1.33-1.67,2.38-3.84,3.15-6.49c0.77-2.66,1.16-5.87,1.16-9.64
		c0-3.94-0.37-7.24-1.09-9.9c-0.73-2.66-1.74-4.82-3.02-6.49c-1.29-1.67-2.81-2.87-4.56-3.6c-1.76-0.73-3.62-1.09-5.59-1.09
		c-2.23,0-4.16,0.3-5.79,0.9c-1.63,0.6-3.21,1.54-4.76,2.83c-1.72,1.63-2.98,3.69-3.79,6.17c-0.82,2.49-1.22,5.66-1.22,9.52V1287.89
		z"/>
</g>
<g>
	<defs>
		<rect id="SVGID_00000172427992007792771300000015632910179064413587_" width="3200" height="2800"/>
	</defs>
	<clipPath id="SVGID_00000169553917109909162110000016500664224444293768_">
		<use xlink:href="#SVGID_00000172427992007792771300000015632910179064413587_"  style="overflow:visible;"/>
	</clipPath>
	<path style="clip-path:url(#SVGID_00000169553917109909162110000016500664224444293768_);fill:#F48481;" d="M1239.34,1313.14
		c-14.94-14.94-14.94-39.15,0-54.08c14.94-14.94,39.15-14.94,54.08,0c14.93,14.93,14.93,39.14,0,54.08
		C1278.48,1328.07,1254.27,1328.07,1239.34,1313.14"/>
</g>
<polyline class="st4" points="1294.92,1311.64 1266.38,1340.84 1266.38,1315.86 1293.45,1313.12 "/>
<g>
	<path class="st2" d="M1312.59,1253.82h17.49v9.39c2.23-3.51,4.93-6.15,8.1-7.91c3.17-1.76,6.51-2.64,10.03-2.64
		c1.71,0,3.13,0.06,4.24,0.19c1.11,0.13,2.1,0.28,2.96,0.45l-2.19,16.33c-2.06-0.51-4.59-0.77-7.59-0.77
		c-1.97,0-3.86,0.24-5.66,0.71c-1.8,0.47-3.43,1.35-4.89,2.64c-1.54,1.37-2.68,2.92-3.41,4.63c-0.73,1.72-1.09,3.47-1.09,5.27v38.83
		h-18V1253.82z"/>
	<path class="st2" d="M1365.82,1253.82h18v41.92c0,4.8,0.86,8.04,2.57,9.71c1.71,1.67,4.07,2.51,7.07,2.51
		c2.31,0,4.22-0.34,5.72-1.03c1.5-0.69,2.94-1.67,4.31-2.96c1.37-1.2,2.46-2.64,3.28-4.31c0.81-1.67,1.22-3.49,1.22-5.46v-40.38h18
		v67.12h-17.49v-9.26c-2.74,3.94-5.85,6.81-9.32,8.62c-3.47,1.8-7.18,2.7-11.12,2.7c-7.63,0-13.24-1.99-16.84-5.98
		s-5.4-10.26-5.4-18.84V1253.82z"/>
	<path class="st2" d="M1426.77,1329.04c2.74,0.69,5.27,1.03,7.59,1.03s4.18-0.54,5.59-1.61c1.41-1.07,2.12-3.37,2.12-6.88v-67.76h18
		v67.38c0,8.23-1.86,14.21-5.59,17.94s-9.24,5.59-16.52,5.59c-2.14,0-4.35-0.17-6.62-0.51c-2.27-0.34-4.65-0.9-7.14-1.67
		L1426.77,1329.04z M1441.82,1229.13h18.52v16.2h-18.52V1229.13z"/>
	<path class="st2" d="M1537.61,1299.98c-1.2,7.54-4.22,13.27-9.07,17.17c-4.84,3.9-11.89,5.85-21.15,5.85
		c-11.15,0-19.52-3.09-25.14-9.26c-5.62-6.17-8.42-14.92-8.42-26.23c0-5.66,0.81-10.69,2.44-15.11c1.63-4.41,3.92-8.17,6.88-11.25
		c2.96-3.09,6.49-5.42,10.61-7.01c4.11-1.59,8.66-2.38,13.63-2.38c10.29,0,18.02,2.96,23.21,8.87c5.19,5.92,7.78,13.89,7.78,23.92
		v7.2h-46.55c0.17,5.4,1.54,9.62,4.11,12.67c2.57,3.04,6.43,4.56,11.57,4.56c7.11,0,11.32-3,12.6-9H1537.61z M1521.02,1279.92
		c0-4.63-1.14-8.23-3.41-10.8c-2.27-2.57-5.81-3.86-10.61-3.86c-2.4,0-4.5,0.39-6.3,1.16s-3.32,1.82-4.56,3.15
		c-1.24,1.33-2.21,2.87-2.89,4.63c-0.69,1.76-1.07,3.66-1.16,5.72H1521.02z"/>
	<path class="st2" d="M1551.88,1253.82h17.49v9c2.49-3.77,5.4-6.56,8.74-8.36s6.86-2.7,10.54-2.7c4.89,0,8.87,0.99,11.96,2.96
		c3.08,1.97,5.27,4.84,6.56,8.62c3.09-4.11,6.34-7.07,9.77-8.87c3.43-1.8,7.2-2.7,11.31-2.7c6.94,0,12.15,1.91,15.62,5.72
		c3.47,3.82,5.21,10.01,5.21,18.58v44.88h-18v-42.43c0-2.4-0.22-4.35-0.64-5.85c-0.43-1.5-1.01-2.68-1.73-3.54
		c-0.73-0.86-1.61-1.46-2.64-1.8c-1.03-0.34-2.1-0.51-3.21-0.51c-1.8,0-3.45,0.3-4.95,0.9c-1.5,0.6-2.98,1.63-4.44,3.09
		c-1.2,1.2-2.17,2.57-2.89,4.11c-0.73,1.54-1.09,3.17-1.09,4.89v41.15h-18v-42.43c0-2.4-0.21-4.35-0.64-5.85
		c-0.43-1.5-1.01-2.68-1.74-3.54c-0.73-0.86-1.61-1.46-2.64-1.8c-1.03-0.34-2.1-0.51-3.21-0.51c-1.8,0-3.45,0.3-4.95,0.9
		c-1.5,0.6-2.98,1.63-4.44,3.09c-1.2,1.2-2.17,2.64-2.89,4.31c-0.73,1.67-1.09,3.49-1.09,5.46v40.38h-18V1253.82z"/>
	<path class="st2" d="M1725.86,1299.98c-1.2,7.54-4.22,13.27-9.07,17.17c-4.84,3.9-11.89,5.85-21.15,5.85
		c-11.14,0-19.53-3.09-25.14-9.26c-5.62-6.17-8.42-14.92-8.42-26.23c0-5.66,0.81-10.69,2.44-15.11c1.63-4.41,3.92-8.17,6.88-11.25
		c2.96-3.09,6.49-5.42,10.61-7.01c4.11-1.59,8.66-2.38,13.63-2.38c10.29,0,18.02,2.96,23.21,8.87c5.19,5.92,7.78,13.89,7.78,23.92
		v7.2h-46.55c0.17,5.4,1.54,9.62,4.11,12.67c2.57,3.04,6.43,4.56,11.57,4.56c7.11,0,11.32-3,12.6-9H1725.86z M1709.27,1279.92
		c0-4.63-1.14-8.23-3.41-10.8c-2.27-2.57-5.81-3.86-10.61-3.86c-2.4,0-4.5,0.39-6.3,1.16s-3.32,1.82-4.56,3.15
		c-1.24,1.33-2.21,2.87-2.89,4.63c-0.69,1.76-1.07,3.66-1.16,5.72H1709.27z"/>
	<path class="st2" d="M1768.81,1229.13h18v33.17c2.66-3.6,5.74-6.26,9.26-7.97c3.51-1.71,7.2-2.57,11.06-2.57
		c7.63,0,13.29,1.99,16.97,5.98c3.68,3.99,5.53,10.27,5.53,18.84v44.36h-18v-41.92c0-4.71-0.9-7.93-2.7-9.64
		c-1.8-1.71-4.2-2.57-7.2-2.57c-2.31,0-4.31,0.34-5.98,1.03c-1.67,0.69-3.24,1.67-4.69,2.96c-1.2,1.2-2.21,2.64-3.02,4.31
		c-0.82,1.67-1.22,3.49-1.22,5.46v40.38h-18V1229.13z"/>
	<path class="st2" d="M1845.06,1229.13h18v91.81h-18V1229.13z M1875.4,1229.13h16.84l-7.71,31.37h-13.25L1875.4,1229.13z"/>
	<path class="st2" d="M1926.06,1312.45c-2.66,3-5.64,5.44-8.94,7.33c-3.3,1.88-7.57,2.83-12.79,2.83c-3,0-5.85-0.39-8.55-1.16
		s-5.06-1.97-7.07-3.6c-2.01-1.63-3.62-3.71-4.82-6.24c-1.2-2.53-1.8-5.55-1.8-9.07c0-4.63,1.03-8.4,3.09-11.32
		c2.06-2.91,4.76-5.19,8.1-6.82c3.34-1.63,7.09-2.78,11.25-3.47c4.16-0.69,8.38-1.11,12.67-1.29l8.62-0.39v-3.34
		c0-4.11-1.14-6.94-3.41-8.49c-2.27-1.54-4.95-2.31-8.04-2.31c-7.12,0-11.19,2.7-12.22,8.1l-16.46-1.54
		c1.2-7.03,4.29-12.11,9.26-15.24c4.97-3.13,11.66-4.69,20.06-4.69c5.14,0,9.52,0.62,13.12,1.86c3.6,1.24,6.49,3.02,8.68,5.34
		c2.19,2.31,3.77,5.12,4.76,8.42c0.98,3.3,1.48,7.01,1.48,11.12v42.43h-16.97V1312.45z M1925.68,1290.98l-7.97,0.39
		c-3.77,0.17-6.81,0.56-9.13,1.16c-2.32,0.6-4.09,1.35-5.34,2.25c-1.24,0.9-2.08,1.95-2.51,3.15c-0.43,1.2-0.64,2.53-0.64,3.99
		c0,2.23,0.77,3.99,2.31,5.27c1.54,1.29,3.69,1.93,6.43,1.93c4.63,0,8.4-1.07,11.32-3.21c1.63-1.2,2.96-2.72,3.99-4.56
		c1.03-1.84,1.54-4.13,1.54-6.88V1290.98z"/>
	<path class="st2" d="M2004.89,1312.06c-5.14,7.29-12.09,10.93-20.83,10.93c-9.43,0-16.46-3.17-21.09-9.52
		c-4.63-6.34-6.94-15.13-6.94-26.36c0-5.23,0.66-10.01,1.99-14.34c1.33-4.33,3.24-8.06,5.72-11.19c2.49-3.13,5.53-5.55,9.13-7.27
		c3.6-1.71,7.67-2.57,12.21-2.57c3.34,0,6.67,0.6,9.97,1.8c3.3,1.2,6.41,3.52,9.32,6.94v-31.37h18v91.81h-17.49V1312.06z
		 M2004.5,1286.6c0-4.29-0.37-7.71-1.09-10.29c-0.73-2.57-1.91-4.67-3.54-6.3c-1.54-1.54-3.24-2.55-5.08-3.02
		c-1.84-0.47-3.67-0.71-5.46-0.71c-1.97,0-3.84,0.39-5.59,1.16c-1.76,0.77-3.3,1.97-4.63,3.6c-1.33,1.63-2.38,3.77-3.15,6.43
		c-0.77,2.66-1.16,5.83-1.16,9.52c0,4.03,0.36,7.39,1.09,10.09c0.73,2.7,1.74,4.89,3.02,6.56c1.29,1.67,2.79,2.87,4.5,3.6
		c1.71,0.73,3.56,1.09,5.53,1.09c4.29,0,7.8-1.24,10.54-3.73c1.71-1.71,2.98-3.79,3.79-6.24c0.81-2.44,1.22-5.59,1.22-9.45V1286.6z"
		/>
	<path class="st2" d="M2078.18,1312.45c-2.66,3-5.64,5.44-8.94,7.33c-3.3,1.88-7.57,2.83-12.79,2.83c-3,0-5.85-0.39-8.55-1.16
		s-5.06-1.97-7.07-3.6c-2.01-1.63-3.62-3.71-4.82-6.24c-1.2-2.53-1.8-5.55-1.8-9.07c0-4.63,1.03-8.4,3.09-11.32
		c2.06-2.91,4.76-5.19,8.1-6.82c3.34-1.63,7.09-2.78,11.25-3.47c4.16-0.69,8.38-1.11,12.67-1.29l8.62-0.39v-3.34
		c0-4.11-1.14-6.94-3.41-8.49c-2.27-1.54-4.95-2.31-8.04-2.31c-7.12,0-11.19,2.7-12.22,8.1l-16.46-1.54
		c1.2-7.03,4.29-12.11,9.26-15.24c4.97-3.13,11.66-4.69,20.06-4.69c5.14,0,9.52,0.62,13.12,1.86c3.6,1.24,6.49,3.02,8.68,5.34
		c2.19,2.31,3.77,5.12,4.76,8.42c0.98,3.3,1.48,7.01,1.48,11.12v42.43h-16.97V1312.45z M2077.79,1290.98l-7.97,0.39
		c-3.77,0.17-6.81,0.56-9.13,1.16c-2.32,0.6-4.09,1.35-5.34,2.25c-1.24,0.9-2.08,1.95-2.51,3.15c-0.43,1.2-0.64,2.53-0.64,3.99
		c0,2.23,0.77,3.99,2.31,5.27c1.54,1.29,3.69,1.93,6.43,1.93c4.63,0,8.4-1.07,11.32-3.21c1.63-1.2,2.96-2.72,3.99-4.56
		c1.03-1.84,1.54-4.13,1.54-6.88V1290.98z"/>
	<path class="st2" d="M2110.45,1253.82h17.49v9.26c2.66-3.94,5.81-6.81,9.45-8.62c3.64-1.8,7.44-2.7,11.38-2.7
		c7.63,0,13.29,1.99,16.97,5.98c3.68,3.99,5.53,10.27,5.53,18.84v44.36h-18v-41.92c0-4.71-0.9-7.93-2.7-9.64
		c-1.8-1.71-4.2-2.57-7.2-2.57c-2.31,0-4.31,0.34-5.98,1.03c-1.67,0.69-3.24,1.67-4.69,2.96c-1.2,1.2-2.21,2.64-3.02,4.31
		c-0.82,1.67-1.22,3.49-1.22,5.46v40.38h-18V1253.82z"/>
	<path class="st2" d="M2186.45,1229.13h18.52v16.2h-18.52V1229.13z M2186.7,1253.82h18v67.12h-18V1253.82z"/>
	<path class="st2" d="M2282.24,1299.98c-1.2,7.54-4.22,13.27-9.07,17.17c-4.84,3.9-11.89,5.85-21.15,5.85
		c-11.14,0-19.53-3.09-25.14-9.26c-5.62-6.17-8.42-14.92-8.42-26.23c0-5.66,0.81-10.69,2.44-15.11c1.63-4.41,3.92-8.17,6.88-11.25
		c2.96-3.09,6.49-5.42,10.61-7.01c4.11-1.59,8.66-2.38,13.63-2.38c10.29,0,18.02,2.96,23.21,8.87c5.19,5.92,7.78,13.89,7.78,23.92
		v7.2h-46.55c0.17,5.4,1.54,9.62,4.11,12.67c2.57,3.04,6.43,4.56,11.57,4.56c7.11,0,11.32-3,12.6-9H2282.24z M2265.65,1279.92
		c0-4.63-1.14-8.23-3.41-10.8c-2.27-2.57-5.81-3.86-10.61-3.86c-2.4,0-4.5,0.39-6.3,1.16s-3.32,1.82-4.56,3.15
		c-1.24,1.33-2.21,2.87-2.89,4.63c-0.69,1.76-1.07,3.66-1.16,5.72H2265.65z"/>
</g>
<g>
	<path class="st2" d="M1113.44,1408.12h17.49v9c2.49-3.77,5.4-6.56,8.74-8.36c3.34-1.8,6.86-2.7,10.54-2.7
		c4.89,0,8.87,0.99,11.96,2.96c3.09,1.97,5.27,4.84,6.56,8.62c3.09-4.11,6.34-7.07,9.77-8.87c3.43-1.8,7.2-2.7,11.32-2.7
		c6.94,0,12.15,1.91,15.62,5.72c3.47,3.82,5.21,10.01,5.21,18.58v44.88h-18v-42.43c0-2.4-0.21-4.35-0.64-5.85
		c-0.43-1.5-1.01-2.68-1.74-3.54c-0.73-0.86-1.61-1.46-2.64-1.8c-1.03-0.34-2.1-0.51-3.21-0.51c-1.8,0-3.45,0.3-4.95,0.9
		c-1.5,0.6-2.98,1.63-4.44,3.09c-1.2,1.2-2.17,2.57-2.89,4.11c-0.73,1.54-1.09,3.17-1.09,4.89v41.15h-18v-42.43
		c0-2.4-0.21-4.35-0.64-5.85c-0.43-1.5-1.01-2.68-1.74-3.54c-0.73-0.86-1.61-1.46-2.64-1.8c-1.03-0.34-2.1-0.51-3.21-0.51
		c-1.8,0-3.45,0.3-4.95,0.9c-1.5,0.6-2.98,1.63-4.44,3.09c-1.2,1.2-2.17,2.64-2.89,4.31c-0.73,1.67-1.09,3.49-1.09,5.46v40.38h-18
		V1408.12z"/>
	<path class="st2" d="M1225.31,1408.12h18v41.92c0,4.8,0.86,8.04,2.57,9.71c1.71,1.67,4.07,2.51,7.07,2.51
		c2.31,0,4.22-0.34,5.72-1.03c1.5-0.69,2.94-1.67,4.31-2.96c1.37-1.2,2.46-2.64,3.28-4.31c0.81-1.67,1.22-3.49,1.22-5.46v-40.38h18
		v67.12H1268v-9.26c-2.74,3.94-5.85,6.81-9.32,8.62c-3.47,1.8-7.18,2.7-11.12,2.7c-7.63,0-13.24-1.99-16.84-5.98
		s-5.4-10.26-5.4-18.84V1408.12z M1257.84,1378.93h20.44l-19.29,19.93h-16.59L1257.84,1378.93z"/>
	<path class="st2" d="M1347.98,1466.37c-5.14,7.29-12.09,10.93-20.83,10.93c-9.43,0-16.46-3.17-21.09-9.52
		c-4.63-6.34-6.94-15.13-6.94-26.36c0-5.23,0.66-10.01,1.99-14.34c1.33-4.33,3.23-8.06,5.72-11.19c2.49-3.13,5.53-5.55,9.13-7.26
		c3.6-1.71,7.67-2.57,12.22-2.57c3.34,0,6.66,0.6,9.97,1.8c3.3,1.2,6.41,3.52,9.32,6.94v-31.37h18v91.81h-17.49V1466.37z
		 M1347.59,1440.91c0-4.29-0.37-7.72-1.09-10.29c-0.73-2.57-1.91-4.67-3.54-6.3c-1.54-1.54-3.24-2.55-5.08-3.02
		c-1.84-0.47-3.66-0.71-5.46-0.71c-1.97,0-3.84,0.39-5.59,1.16c-1.76,0.77-3.3,1.97-4.63,3.6c-1.33,1.63-2.38,3.77-3.15,6.43
		c-0.77,2.66-1.16,5.83-1.16,9.52c0,4.03,0.36,7.39,1.09,10.09c0.73,2.7,1.74,4.89,3.02,6.56c1.29,1.67,2.78,2.87,4.5,3.6
		c1.71,0.73,3.56,1.09,5.53,1.09c4.29,0,7.8-1.24,10.54-3.73c1.71-1.71,2.98-3.79,3.79-6.24c0.81-2.44,1.22-5.59,1.22-9.45V1440.91z
		"/>
	<path class="st2" d="M1381.41,1408.12h17.49v9.39c2.23-3.51,4.93-6.15,8.1-7.91c3.17-1.76,6.51-2.64,10.03-2.64
		c1.71,0,3.13,0.06,4.24,0.19c1.11,0.13,2.1,0.28,2.96,0.45l-2.19,16.33c-2.06-0.51-4.59-0.77-7.59-0.77
		c-1.97,0-3.86,0.24-5.66,0.71c-1.8,0.47-3.43,1.35-4.89,2.64c-1.54,1.37-2.68,2.92-3.41,4.63c-0.73,1.72-1.09,3.47-1.09,5.27v38.83
		h-18V1408.12z"/>
	<path class="st2" d="M1439.66,1484.76c2.49,0.68,5.02,1.03,7.59,1.03c2.4,0,4.33-0.58,5.79-1.74c1.46-1.16,2.7-3.2,3.73-6.11
		l2.06-5.66l-27.9-64.17h20.83l15.69,44.11l14.66-44.11h19.67l-27.13,69.05c-1.54,3.86-3,7.22-4.37,10.09
		c-1.37,2.87-2.94,5.27-4.69,7.2c-1.76,1.93-3.86,3.36-6.3,4.31c-2.44,0.94-5.46,1.41-9.07,1.41c-2.23,0-4.44-0.15-6.62-0.45
		c-2.19-0.3-4.48-0.83-6.88-1.61L1439.66,1484.76z"/>
	<path class="st2" d="M1567.34,1450.94c-0.69,8.06-3.45,14.47-8.29,19.22c-4.84,4.76-12.11,7.14-21.8,7.14
		c-5.66,0-10.54-0.86-14.66-2.57s-7.48-4.11-10.09-7.2c-2.62-3.09-4.56-6.82-5.85-11.19c-1.29-4.37-1.93-9.21-1.93-14.53
		c0-5.31,0.75-10.18,2.25-14.59c1.5-4.41,3.66-8.19,6.49-11.32c2.83-3.13,6.3-5.55,10.42-7.26c4.11-1.71,8.83-2.57,14.14-2.57
		c4.54,0,8.51,0.58,11.89,1.74c3.39,1.16,6.24,2.76,8.55,4.82s4.11,4.52,5.4,7.39c1.29,2.87,2.14,6.02,2.57,9.45l-18.13,2.44
		c-0.43-3.43-1.41-6.19-2.96-8.29c-1.54-2.1-4.2-3.15-7.97-3.15c-2.74,0-5.01,0.58-6.81,1.74s-3.24,2.72-4.31,4.69
		c-1.07,1.97-1.82,4.22-2.25,6.75c-0.43,2.53-0.64,5.17-0.64,7.91c0,2.83,0.21,5.53,0.64,8.1c0.43,2.57,1.16,4.84,2.19,6.82
		c1.03,1.97,2.44,3.54,4.24,4.69s4.07,1.74,6.81,1.74c3.6,0,6.39-1.03,8.36-3.09c1.97-2.06,3.13-5.01,3.47-8.87H1567.34z"/>
	<path class="st2" d="M1580.2,1383.43h18v33.18c2.66-3.6,5.74-6.26,9.26-7.97c3.51-1.71,7.2-2.57,11.06-2.57
		c7.63,0,13.29,1.99,16.97,5.98c3.68,3.99,5.53,10.27,5.53,18.84v44.36h-18v-41.92c0-4.71-0.9-7.93-2.7-9.64
		c-1.8-1.71-4.2-2.57-7.2-2.57c-2.31,0-4.31,0.34-5.98,1.03c-1.67,0.69-3.24,1.67-4.69,2.96c-1.2,1.2-2.21,2.64-3.02,4.31
		c-0.82,1.67-1.22,3.49-1.22,5.46v40.38h-18V1383.43z"/>
	<path class="st2" d="M1685,1408.12h17.49v9.39c2.23-3.51,4.93-6.15,8.1-7.91c3.17-1.76,6.51-2.64,10.03-2.64
		c1.71,0,3.13,0.06,4.24,0.19c1.11,0.13,2.1,0.28,2.96,0.45l-2.19,16.33c-2.06-0.51-4.59-0.77-7.59-0.77
		c-1.97,0-3.86,0.24-5.66,0.71c-1.8,0.47-3.43,1.35-4.89,2.64c-1.54,1.37-2.68,2.92-3.41,4.63c-0.73,1.72-1.09,3.47-1.09,5.27v38.83
		h-18V1408.12z"/>
	<path class="st2" d="M1738.74,1383.43h18.52v16.2h-18.52V1383.43z M1739,1408.12h18v67.12h-18V1408.12z"/>
	<path class="st2" d="M1834.54,1454.28c-1.2,7.54-4.22,13.27-9.07,17.17c-4.84,3.9-11.89,5.85-21.15,5.85
		c-11.14,0-19.53-3.09-25.14-9.26c-5.62-6.17-8.42-14.92-8.42-26.23c0-5.66,0.81-10.69,2.44-15.11c1.63-4.41,3.92-8.17,6.88-11.25
		c2.96-3.09,6.49-5.42,10.61-7.01c4.11-1.58,8.66-2.38,13.63-2.38c10.29,0,18.02,2.96,23.21,8.87c5.19,5.92,7.78,13.89,7.78,23.92
		v7.2h-46.55c0.17,5.4,1.54,9.62,4.11,12.67c2.57,3.04,6.43,4.57,11.57,4.57c7.11,0,11.32-3,12.6-9H1834.54z M1817.95,1434.22
		c0-4.63-1.14-8.23-3.41-10.8c-2.27-2.57-5.81-3.86-10.61-3.86c-2.4,0-4.5,0.39-6.3,1.16s-3.32,1.82-4.56,3.15
		c-1.24,1.33-2.21,2.87-2.89,4.63c-0.69,1.76-1.07,3.67-1.16,5.72H1817.95z"/>
	<path class="st2" d="M1861.8,1453.89c0.6,3.94,2.19,6.52,4.76,7.72c2.57,1.2,5.66,1.8,9.26,1.8c4.29,0,7.35-0.53,9.19-1.61
		c1.84-1.07,2.76-2.81,2.76-5.21c0-1.71-0.58-3.21-1.74-4.5s-3.37-2.19-6.62-2.7l-9.26-1.54c-8.14-1.29-14.21-3.49-18.19-6.62
		c-3.99-3.13-5.98-7.86-5.98-14.21c0-3.26,0.71-6.17,2.12-8.74c1.42-2.57,3.41-4.76,5.98-6.56c2.57-1.8,5.64-3.19,9.19-4.18
		c3.56-0.98,7.48-1.48,11.77-1.48c5.31,0,9.77,0.54,13.37,1.61c3.6,1.07,6.54,2.51,8.81,4.31c2.27,1.8,3.99,3.94,5.14,6.43
		c1.16,2.49,1.99,5.14,2.51,7.97l-16.07,2.06c-0.77-3.09-2.12-5.36-4.05-6.81c-1.93-1.46-5.04-2.19-9.32-2.19
		c-2.4,0-4.39,0.19-5.98,0.58c-1.59,0.39-2.83,0.88-3.73,1.48c-0.9,0.6-1.54,1.29-1.93,2.06s-0.58,1.5-0.58,2.19
		c0,2.14,0.66,3.71,1.99,4.69c1.33,0.99,3.92,1.82,7.78,2.51l8.49,1.41c4.71,0.77,8.62,1.76,11.7,2.96c3.09,1.2,5.55,2.68,7.39,4.44
		c1.84,1.76,3.13,3.84,3.86,6.24c0.73,2.4,1.09,5.19,1.09,8.36c0,6.34-2.4,11.42-7.2,15.24c-4.8,3.81-12.22,5.72-22.25,5.72
		c-4.03,0-7.87-0.37-11.51-1.09c-3.64-0.73-6.9-1.99-9.77-3.79c-2.87-1.8-5.23-4.2-7.07-7.2c-1.84-3-2.89-6.77-3.15-11.32H1861.8z
		 M1884.43,1398.86h-18.13l-15.43-19.93h15.43l9.13,10.67l9-10.67h15.43L1884.43,1398.86z"/>
	<path class="st2" d="M1978.17,1454.28c-1.2,7.54-4.22,13.27-9.07,17.17c-4.84,3.9-11.89,5.85-21.15,5.85
		c-11.14,0-19.53-3.09-25.14-9.26c-5.62-6.17-8.42-14.92-8.42-26.23c0-5.66,0.81-10.69,2.44-15.11c1.63-4.41,3.92-8.17,6.88-11.25
		c2.96-3.09,6.49-5.42,10.61-7.01c4.11-1.58,8.66-2.38,13.63-2.38c10.29,0,18.02,2.96,23.21,8.87c5.19,5.92,7.78,13.89,7.78,23.92
		v7.2h-46.55c0.17,5.4,1.54,9.62,4.11,12.67c2.57,3.04,6.43,4.57,11.57,4.57c7.11,0,11.32-3,12.6-9H1978.17z M1961.58,1434.22
		c0-4.63-1.14-8.23-3.41-10.8c-2.27-2.57-5.81-3.86-10.61-3.86c-2.4,0-4.5,0.39-6.3,1.16s-3.32,1.82-4.56,3.15
		c-1.24,1.33-2.21,2.87-2.89,4.63c-0.69,1.76-1.07,3.67-1.16,5.72H1961.58z"/>
	<path class="st2" d="M1992.44,1408.12h17.49v9.26c2.66-3.94,5.81-6.82,9.45-8.62c3.64-1.8,7.44-2.7,11.38-2.7
		c7.63,0,13.29,1.99,16.97,5.98c3.68,3.99,5.53,10.27,5.53,18.84v44.36h-18v-41.92c0-4.71-0.9-7.93-2.7-9.64
		c-1.8-1.71-4.2-2.57-7.2-2.57c-2.31,0-4.31,0.34-5.98,1.03c-1.67,0.69-3.24,1.67-4.69,2.96c-1.2,1.2-2.21,2.64-3.02,4.31
		c-0.82,1.67-1.22,3.49-1.22,5.46v40.38h-18V1408.12z"/>
	<path class="st2" d="M2082.19,1378.93h20.45l-19.29,19.93h-16.59L2082.19,1378.93z M2068.69,1408.12h18v67.12h-18V1408.12z"/>
</g>
<g>
	<path class="st2" d="M1069.66,1562.42h17.49v8.87c5.14-7.29,12.17-10.93,21.09-10.93c9.34,0,16.33,3.17,20.96,9.51
		c4.63,6.34,6.94,15.04,6.94,26.1c0,5.32-0.67,10.16-1.99,14.53c-1.33,4.37-3.26,8.12-5.79,11.25c-2.53,3.13-5.59,5.55-9.19,7.26
		c-3.6,1.71-7.67,2.57-12.22,2.57c-3.34,0-6.67-0.6-9.97-1.8c-3.3-1.2-6.41-3.6-9.32-7.2v31.89h-18V1562.42z M1087.53,1596.5
		c0,4.37,0.36,7.87,1.09,10.48c0.73,2.62,1.91,4.74,3.54,6.36c1.71,1.54,3.45,2.55,5.21,3.02c1.76,0.47,3.54,0.71,5.34,0.71
		c1.97,0,3.86-0.39,5.66-1.16s3.36-1.99,4.69-3.67c1.33-1.67,2.38-3.83,3.15-6.49c0.77-2.66,1.16-5.87,1.16-9.64
		c0-3.94-0.37-7.24-1.09-9.9c-0.73-2.66-1.74-4.82-3.02-6.49c-1.29-1.67-2.81-2.87-4.56-3.6c-1.76-0.73-3.62-1.09-5.59-1.09
		c-2.23,0-4.16,0.3-5.79,0.9c-1.63,0.6-3.21,1.54-4.76,2.83c-1.72,1.63-2.98,3.69-3.79,6.17c-0.82,2.49-1.22,5.66-1.22,9.52V1596.5z
		"/>
	<path class="st2" d="M1149.77,1562.42h17.49v9.39c2.23-3.51,4.93-6.15,8.1-7.91c3.17-1.76,6.51-2.64,10.03-2.64
		c1.71,0,3.13,0.06,4.24,0.19c1.11,0.13,2.1,0.28,2.96,0.45l-2.19,16.33c-2.06-0.51-4.59-0.77-7.59-0.77
		c-1.97,0-3.86,0.24-5.66,0.71c-1.8,0.47-3.43,1.35-4.89,2.64c-1.54,1.37-2.68,2.92-3.41,4.63c-0.73,1.72-1.09,3.47-1.09,5.27v38.83
		h-18V1562.42z"/>
	<path class="st2" d="M1262.02,1608.58c-1.2,7.54-4.22,13.27-9.07,17.17c-4.84,3.9-11.89,5.85-21.15,5.85
		c-11.15,0-19.52-3.09-25.14-9.26c-5.62-6.17-8.42-14.92-8.42-26.23c0-5.66,0.81-10.69,2.44-15.11c1.63-4.41,3.92-8.17,6.88-11.25
		c2.96-3.09,6.49-5.42,10.61-7.01c4.11-1.58,8.66-2.38,13.63-2.38c10.29,0,18.02,2.96,23.21,8.87c5.19,5.92,7.78,13.89,7.78,23.92
		v7.2h-46.55c0.17,5.4,1.54,9.62,4.11,12.67c2.57,3.04,6.43,4.57,11.57,4.57c7.11,0,11.32-3,12.6-9H1262.02z M1245.43,1588.52
		c0-4.63-1.14-8.23-3.41-10.8c-2.27-2.57-5.81-3.86-10.61-3.86c-2.4,0-4.5,0.39-6.3,1.16s-3.32,1.82-4.56,3.15
		c-1.24,1.33-2.21,2.87-2.89,4.63c-0.69,1.76-1.07,3.67-1.16,5.72H1245.43z"/>
	<path class="st2" d="M1298.02,1562.42h20.83l15.04,46.68l15.04-46.68h19.93l-26.49,67.12h-18L1298.02,1562.42z"/>
	<path class="st2" d="M1382.76,1639.06c2.49,0.68,5.02,1.03,7.59,1.03c2.4,0,4.33-0.58,5.79-1.74c1.46-1.16,2.7-3.2,3.73-6.11
		l2.06-5.66l-27.9-64.17h20.83l15.69,44.11l14.66-44.11h19.67l-27.13,69.05c-1.54,3.86-3,7.22-4.37,10.09
		c-1.37,2.87-2.94,5.27-4.69,7.2c-1.76,1.93-3.86,3.36-6.3,4.31c-2.44,0.94-5.46,1.41-9.07,1.41c-2.23,0-4.44-0.15-6.62-0.45
		c-2.19-0.3-4.48-0.83-6.88-1.61L1382.76,1639.06z M1412.08,1533.23h20.45l-19.29,19.93h-16.59L1412.08,1533.23z"/>
	<path class="st2" d="M1451.94,1617.33l32.66-40.89h-32.02v-14.02h54.91v12.22l-32.53,40.89h34.08l-1.67,14.02h-55.42V1617.33z"/>
	<path class="st2" d="M1514.3,1562.42h20.83l15.04,46.68l15.04-46.68h19.93l-26.49,67.12h-18L1514.3,1562.42z"/>
	<path class="st2" d="M1599.16,1639.06c2.49,0.68,5.02,1.03,7.59,1.03c2.4,0,4.33-0.58,5.79-1.74c1.46-1.16,2.7-3.2,3.73-6.11
		l2.06-5.66l-27.9-64.17h20.83l15.69,44.11l14.66-44.11h19.67l-27.13,69.05c-1.54,3.86-3,7.22-4.37,10.09
		c-1.37,2.87-2.94,5.27-4.69,7.2c-1.76,1.93-3.86,3.36-6.3,4.31c-2.44,0.94-5.46,1.41-9.06,1.41c-2.23,0-4.44-0.15-6.62-0.45
		c-2.19-0.3-4.48-0.83-6.88-1.61L1599.16,1639.06z"/>
	<path class="st2" d="M1745.49,1620.67c-5.14,7.29-12.09,10.93-20.83,10.93c-9.43,0-16.46-3.17-21.09-9.52
		c-4.63-6.34-6.94-15.13-6.94-26.36c0-5.23,0.66-10.01,1.99-14.34c1.33-4.33,3.24-8.06,5.72-11.19c2.49-3.13,5.53-5.55,9.13-7.26
		c3.6-1.71,7.67-2.57,12.21-2.57c3.34,0,6.67,0.6,9.97,1.8c3.3,1.2,6.41,3.52,9.32,6.94v-31.38h18v91.81h-17.49V1620.67z
		 M1745.11,1595.21c0-4.29-0.37-7.72-1.09-10.29c-0.73-2.57-1.91-4.67-3.54-6.3c-1.54-1.54-3.24-2.55-5.08-3.02
		c-1.84-0.47-3.67-0.71-5.46-0.71c-1.97,0-3.84,0.39-5.59,1.16c-1.76,0.77-3.3,1.97-4.63,3.6c-1.33,1.63-2.38,3.77-3.15,6.43
		c-0.77,2.66-1.16,5.83-1.16,9.52c0,4.03,0.36,7.39,1.09,10.09c0.73,2.7,1.74,4.89,3.02,6.56s2.79,2.87,4.5,3.6
		c1.71,0.73,3.56,1.09,5.53,1.09c4.29,0,7.8-1.24,10.54-3.73c1.71-1.71,2.98-3.79,3.79-6.24c0.81-2.44,1.22-5.59,1.22-9.45V1595.21z
		"/>
	<path class="st2" d="M1778.92,1562.42h17.49v9.26c2.66-3.94,5.81-6.82,9.45-8.62c3.64-1.8,7.44-2.7,11.38-2.7
		c7.63,0,13.29,1.99,16.97,5.98c3.68,3.99,5.53,10.27,5.53,18.84v44.36h-18v-41.92c0-4.71-0.9-7.93-2.7-9.64
		c-1.8-1.71-4.2-2.57-7.2-2.57c-2.31,0-4.31,0.34-5.98,1.03c-1.67,0.69-3.24,1.67-4.69,2.96c-1.2,1.2-2.21,2.64-3.02,4.31
		c-0.82,1.67-1.22,3.49-1.22,5.46v40.38h-18V1562.42z"/>
	<path class="st2" d="M1916.51,1608.58c-1.2,7.54-4.22,13.27-9.07,17.17c-4.84,3.9-11.89,5.85-21.15,5.85
		c-11.14,0-19.53-3.09-25.14-9.26c-5.62-6.17-8.42-14.92-8.42-26.23c0-5.66,0.81-10.69,2.44-15.11c1.63-4.41,3.92-8.17,6.88-11.25
		c2.96-3.09,6.49-5.42,10.61-7.01c4.11-1.58,8.66-2.38,13.63-2.38c10.29,0,18.02,2.96,23.21,8.87c5.19,5.92,7.78,13.89,7.78,23.92
		v7.2h-46.55c0.17,5.4,1.54,9.62,4.11,12.67c2.57,3.04,6.43,4.57,11.57,4.57c7.11,0,11.32-3,12.6-9H1916.51z M1899.92,1588.52
		c0-4.63-1.14-8.23-3.41-10.8c-2.27-2.57-5.81-3.86-10.61-3.86c-2.4,0-4.5,0.39-6.3,1.16s-3.32,1.82-4.56,3.15
		c-1.24,1.33-2.21,2.87-2.89,4.63c-0.69,1.76-1.07,3.67-1.16,5.72H1899.92z"/>
	<path class="st2" d="M1943.77,1608.2c0.6,3.94,2.19,6.52,4.76,7.72c2.57,1.2,5.66,1.8,9.26,1.8c4.29,0,7.35-0.53,9.19-1.61
		c1.84-1.07,2.76-2.81,2.76-5.21c0-1.71-0.58-3.21-1.74-4.5s-3.37-2.19-6.62-2.7l-9.26-1.54c-8.14-1.29-14.21-3.49-18.19-6.62
		c-3.99-3.13-5.98-7.86-5.98-14.21c0-3.26,0.71-6.17,2.12-8.74c1.42-2.57,3.41-4.76,5.98-6.56c2.57-1.8,5.64-3.19,9.19-4.18
		c3.56-0.98,7.48-1.48,11.77-1.48c5.31,0,9.77,0.54,13.37,1.61c3.6,1.07,6.54,2.51,8.81,4.31c2.27,1.8,3.99,3.94,5.14,6.43
		c1.16,2.49,1.99,5.14,2.51,7.97l-16.07,2.06c-0.77-3.09-2.12-5.36-4.05-6.81c-1.93-1.46-5.04-2.19-9.32-2.19
		c-2.4,0-4.39,0.19-5.98,0.58c-1.59,0.39-2.83,0.88-3.73,1.48c-0.9,0.6-1.54,1.29-1.93,2.06s-0.58,1.5-0.58,2.19
		c0,2.14,0.66,3.71,1.99,4.69c1.33,0.99,3.92,1.82,7.78,2.51l8.49,1.41c4.71,0.77,8.62,1.76,11.7,2.96c3.09,1.2,5.55,2.68,7.39,4.44
		c1.84,1.76,3.13,3.84,3.86,6.24c0.73,2.4,1.09,5.19,1.09,8.36c0,6.34-2.4,11.42-7.2,15.24c-4.8,3.81-12.22,5.72-22.25,5.72
		c-4.03,0-7.87-0.37-11.51-1.09c-3.64-0.73-6.9-1.99-9.77-3.79c-2.87-1.8-5.23-4.2-7.07-7.2c-1.84-3-2.89-6.77-3.15-11.32H1943.77z
		 M1966.4,1553.16h-18.13l-15.43-19.93h15.43l9.13,10.67l9-10.67h15.43L1966.4,1553.16z"/>
	<path class="st2" d="M1999.83,1537.73h17.62v48.09l25.85-23.4h20.83l-24.43,23.15l26.36,43.98h-19.42l-19.8-33.95l-9.39,8.49v25.46
		h-17.62V1537.73z"/>
	<path class="st2" d="M2113.89,1621.06c-2.66,3-5.64,5.44-8.94,7.33c-3.3,1.88-7.57,2.83-12.79,2.83c-3,0-5.85-0.39-8.55-1.16
		s-5.06-1.97-7.07-3.6c-2.01-1.63-3.62-3.71-4.82-6.24c-1.2-2.53-1.8-5.55-1.8-9.07c0-4.63,1.03-8.4,3.09-11.32
		c2.06-2.91,4.76-5.19,8.1-6.82c3.34-1.63,7.09-2.78,11.25-3.47c4.16-0.69,8.38-1.11,12.67-1.29l8.62-0.39v-3.34
		c0-4.12-1.14-6.94-3.41-8.49c-2.27-1.54-4.95-2.32-8.04-2.32c-7.12,0-11.19,2.7-12.22,8.1l-16.46-1.54
		c1.2-7.03,4.29-12.11,9.26-15.24c4.97-3.13,11.66-4.69,20.06-4.69c5.14,0,9.52,0.62,13.12,1.86c3.6,1.24,6.49,3.02,8.68,5.34
		c2.19,2.31,3.77,5.12,4.76,8.42c0.98,3.3,1.48,7.01,1.48,11.12v42.43h-16.97V1621.06z M2113.5,1599.58l-7.97,0.39
		c-3.77,0.17-6.81,0.56-9.13,1.16c-2.32,0.6-4.09,1.35-5.34,2.25c-1.24,0.9-2.08,1.95-2.51,3.15c-0.43,1.2-0.64,2.53-0.64,3.99
		c0,2.23,0.77,3.99,2.31,5.27s3.69,1.93,6.43,1.93c4.63,0,8.4-1.07,11.32-3.21c1.63-1.2,2.96-2.72,3.99-4.56
		c1.03-1.84,1.54-4.13,1.54-6.88V1599.58z"/>
</g>
<g>
	<path class="st2" d="M1352.67,1775.36c-2.66,3-5.64,5.44-8.94,7.33c-3.3,1.88-7.57,2.83-12.79,2.83c-3,0-5.85-0.39-8.55-1.16
		c-2.7-0.77-5.06-1.97-7.07-3.6c-2.02-1.63-3.62-3.71-4.82-6.24c-1.2-2.53-1.8-5.55-1.8-9.07c0-4.63,1.03-8.4,3.09-11.32
		c2.06-2.91,4.76-5.19,8.1-6.82c3.34-1.63,7.09-2.78,11.25-3.47c4.16-0.69,8.38-1.11,12.67-1.29l8.62-0.39v-3.34
		c0-4.12-1.14-6.94-3.41-8.49c-2.27-1.54-4.95-2.32-8.04-2.32c-7.12,0-11.19,2.7-12.22,8.1l-16.46-1.54
		c1.2-7.03,4.29-12.11,9.26-15.24c4.97-3.13,11.66-4.69,20.06-4.69c5.14,0,9.52,0.62,13.12,1.86c3.6,1.24,6.49,3.02,8.68,5.34
		s3.77,5.12,4.76,8.42c0.98,3.3,1.48,7.01,1.48,11.12v42.43h-16.97V1775.36z M1352.29,1753.88l-7.97,0.39
		c-3.77,0.17-6.82,0.56-9.13,1.16c-2.31,0.6-4.09,1.35-5.34,2.25c-1.24,0.9-2.08,1.95-2.51,3.15c-0.43,1.2-0.64,2.53-0.64,3.99
		c0,2.23,0.77,3.99,2.31,5.27c1.54,1.29,3.68,1.93,6.43,1.93c4.63,0,8.4-1.07,11.32-3.21c1.63-1.2,2.96-2.72,3.99-4.56
		c1.03-1.84,1.54-4.13,1.54-6.88V1753.88z"/>
	<path class="st2" d="M1413.62,1692.04h17.62v48.09l25.85-23.4h20.83l-24.43,23.15l26.36,43.98h-19.42l-19.8-33.95l-9.39,8.49v25.46
		h-17.62V1692.04z"/>
	<path class="st2" d="M1483.44,1716.72h20.83l15.04,46.68l15.04-46.68h19.93l-26.49,67.12h-18L1483.44,1716.72z"/>
	<path class="st2" d="M1601.99,1775.36c-2.66,3-5.64,5.44-8.94,7.33c-3.3,1.88-7.57,2.83-12.79,2.83c-3,0-5.85-0.39-8.55-1.16
		c-2.7-0.77-5.06-1.97-7.07-3.6c-2.02-1.63-3.62-3.71-4.82-6.24c-1.2-2.53-1.8-5.55-1.8-9.07c0-4.63,1.03-8.4,3.09-11.32
		c2.06-2.91,4.76-5.19,8.1-6.82c3.34-1.63,7.09-2.78,11.25-3.47c4.16-0.69,8.38-1.11,12.67-1.29l8.62-0.39v-3.34
		c0-4.12-1.14-6.94-3.41-8.49c-2.27-1.54-4.95-2.32-8.04-2.32c-7.12,0-11.19,2.7-12.22,8.1l-16.46-1.54
		c1.2-7.03,4.29-12.11,9.26-15.24c4.97-3.13,11.66-4.69,20.06-4.69c5.14,0,9.52,0.62,13.12,1.86c3.6,1.24,6.49,3.02,8.68,5.34
		c2.19,2.31,3.77,5.12,4.76,8.42c0.98,3.3,1.48,7.01,1.48,11.12v42.43h-16.97V1775.36z M1601.61,1753.88l-7.97,0.39
		c-3.77,0.17-6.82,0.56-9.13,1.16c-2.31,0.6-4.09,1.35-5.34,2.25c-1.24,0.9-2.08,1.95-2.51,3.15c-0.43,1.2-0.64,2.53-0.64,3.99
		c0,2.23,0.77,3.99,2.31,5.27c1.54,1.29,3.68,1.93,6.43,1.93c4.63,0,8.4-1.07,11.32-3.21c1.63-1.2,2.96-2.72,3.99-4.56
		c1.03-1.84,1.54-4.13,1.54-6.88V1753.88z"/>
	<path class="st2" d="M1634.4,1692.04h18v91.81h-18V1692.04z"/>
	<path class="st2" d="M1668.34,1692.04h18.52v16.2h-18.52V1692.04z M1668.6,1716.72h18v67.12h-18V1716.72z"/>
	<path class="st2" d="M1706.79,1730.74h-10.54v-14.02h10.54v-17.87h18v17.87h15.43v14.02h-15.43v30.99c0,3.52,0.73,5.9,2.19,7.14
		c1.46,1.24,3.34,1.86,5.66,1.86c1.2,0,2.42-0.06,3.67-0.19c1.24-0.13,2.46-0.36,3.66-0.71l2.57,13.24
		c-2.49,0.77-4.91,1.31-7.27,1.61c-2.36,0.3-4.61,0.45-6.75,0.45c-7.37,0-12.84-1.76-16.39-5.27c-3.56-3.51-5.34-9.43-5.34-17.75
		V1730.74z"/>
	<path class="st2" d="M1751.41,1716.72h17.49v9.26c2.66-3.94,5.81-6.82,9.45-8.62c3.64-1.8,7.44-2.7,11.38-2.7
		c7.63,0,13.29,1.99,16.97,5.98c3.68,3.99,5.53,10.27,5.53,18.84v44.36h-18v-41.92c0-4.71-0.9-7.93-2.7-9.64
		c-1.8-1.71-4.2-2.57-7.2-2.57c-2.31,0-4.31,0.34-5.98,1.03c-1.67,0.69-3.24,1.67-4.69,2.96c-1.2,1.2-2.21,2.64-3.02,4.31
		c-0.82,1.67-1.22,3.49-1.22,5.46v40.38h-18V1716.72z"/>
	<path class="st2" d="M1888.99,1762.89c-1.2,7.54-4.22,13.27-9.07,17.17c-4.84,3.9-11.89,5.85-21.15,5.85
		c-11.14,0-19.53-3.09-25.14-9.26c-5.62-6.17-8.42-14.92-8.42-26.23c0-5.66,0.81-10.69,2.44-15.11c1.63-4.41,3.92-8.17,6.88-11.25
		c2.96-3.09,6.49-5.42,10.61-7.01c4.11-1.58,8.66-2.38,13.63-2.38c10.29,0,18.02,2.96,23.21,8.87c5.19,5.92,7.78,13.89,7.78,23.92
		v7.2h-46.55c0.17,5.4,1.54,9.62,4.11,12.67c2.57,3.04,6.43,4.57,11.57,4.57c7.11,0,11.32-3,12.6-9H1888.99z M1872.41,1742.83
		c0-4.63-1.14-8.23-3.41-10.8c-2.27-2.57-5.81-3.86-10.61-3.86c-2.4,0-4.5,0.39-6.3,1.16s-3.32,1.82-4.56,3.15
		c-1.24,1.33-2.21,2.87-2.89,4.63c-0.69,1.76-1.07,3.67-1.16,5.72H1872.41z M1861.22,1687.54h20.45l-19.29,19.93h-16.59
		L1861.22,1687.54z"/>
</g>
<g>
	<path class="st2" d="M985.95,1871.03h17.49v9c2.49-3.77,5.4-6.56,8.74-8.36c3.34-1.8,6.86-2.7,10.54-2.7
		c4.89,0,8.87,0.99,11.96,2.96c3.09,1.97,5.27,4.84,6.56,8.62c3.09-4.11,6.34-7.07,9.77-8.87c3.43-1.8,7.2-2.7,11.32-2.7
		c6.94,0,12.15,1.91,15.62,5.72c3.47,3.82,5.21,10.01,5.21,18.58v44.88h-18v-42.43c0-2.4-0.21-4.35-0.64-5.85
		c-0.43-1.5-1.01-2.68-1.74-3.54c-0.73-0.86-1.61-1.46-2.64-1.8c-1.03-0.34-2.1-0.51-3.21-0.51c-1.8,0-3.45,0.3-4.95,0.9
		c-1.5,0.6-2.98,1.63-4.44,3.09c-1.2,1.2-2.17,2.57-2.89,4.11c-0.73,1.54-1.09,3.17-1.09,4.89v41.15h-18v-42.43
		c0-2.4-0.21-4.35-0.64-5.85c-0.43-1.5-1.01-2.68-1.74-3.54c-0.73-0.86-1.61-1.46-2.64-1.8c-1.03-0.34-2.1-0.51-3.21-0.51
		c-1.8,0-3.45,0.3-4.95,0.9c-1.5,0.6-2.98,1.63-4.44,3.09c-1.2,1.2-2.17,2.64-2.89,4.31c-0.73,1.67-1.09,3.49-1.09,5.46v40.38h-18
		V1871.03z"/>
	<path class="st2" d="M1159.92,1917.19c-1.2,7.54-4.22,13.27-9.07,17.17c-4.84,3.9-11.89,5.85-21.15,5.85
		c-11.15,0-19.52-3.09-25.14-9.26c-5.62-6.17-8.42-14.92-8.42-26.23c0-5.66,0.81-10.69,2.44-15.11c1.63-4.41,3.92-8.17,6.88-11.25
		c2.96-3.09,6.49-5.42,10.61-7.01c4.11-1.58,8.66-2.38,13.63-2.38c10.29,0,18.02,2.96,23.21,8.87c5.19,5.92,7.78,13.89,7.78,23.92
		v7.2h-46.55c0.17,5.4,1.54,9.62,4.11,12.67c2.57,3.04,6.43,4.57,11.57,4.57c7.11,0,11.32-3,12.6-9H1159.92z M1143.34,1897.13
		c0-4.63-1.14-8.23-3.41-10.8c-2.27-2.57-5.81-3.86-10.61-3.86c-2.4,0-4.5,0.39-6.3,1.16s-3.32,1.82-4.56,3.15
		c-1.24,1.33-2.21,2.87-2.89,4.63c-0.69,1.76-1.07,3.67-1.16,5.72H1143.34z"/>
	<path class="st2" d="M1220.74,1929.28c-5.14,7.29-12.09,10.93-20.83,10.93c-9.43,0-16.46-3.17-21.09-9.52
		c-4.63-6.34-6.94-15.13-6.94-26.36c0-5.23,0.66-10.01,1.99-14.34c1.33-4.33,3.23-8.06,5.72-11.19c2.49-3.13,5.53-5.55,9.13-7.26
		c3.6-1.71,7.67-2.57,12.22-2.57c3.34,0,6.66,0.6,9.97,1.8c3.3,1.2,6.41,3.52,9.32,6.94v-31.38h18v91.81h-17.49V1929.28z
		 M1220.36,1903.82c0-4.29-0.37-7.72-1.09-10.29c-0.73-2.57-1.91-4.67-3.54-6.3c-1.54-1.54-3.24-2.55-5.08-3.02
		c-1.84-0.47-3.66-0.71-5.46-0.71c-1.97,0-3.84,0.39-5.59,1.16c-1.76,0.77-3.3,1.97-4.63,3.6c-1.33,1.63-2.38,3.77-3.15,6.43
		c-0.77,2.66-1.16,5.83-1.16,9.52c0,4.03,0.36,7.39,1.09,10.09c0.73,2.7,1.74,4.89,3.02,6.56c1.29,1.67,2.78,2.87,4.5,3.6
		c1.71,0.73,3.56,1.09,5.53,1.09c4.29,0,7.8-1.24,10.54-3.73c1.71-1.71,2.98-3.79,3.79-6.24c0.81-2.44,1.22-5.59,1.22-9.45V1903.82z
		"/>
	<path class="st2" d="M1250.96,1925.93l32.66-40.89h-32.02v-14.02h54.91v12.22l-32.53,40.89h34.08l-1.67,14.02h-55.42V1925.93z"/>
	<path class="st2" d="M1318.34,1846.34h18.52v16.2h-18.52V1846.34z M1318.6,1871.03h18v67.12h-18V1871.03z"/>
	<path class="st2" d="M1352.8,1846.34h18v91.81h-18V1846.34z M1383.15,1846.34h16.84l-7.72,31.38h-13.24L1383.15,1846.34z"/>
	<path class="st2" d="M1399.09,1871.03h18v41.92c0,4.8,0.86,8.04,2.57,9.71c1.71,1.67,4.07,2.51,7.07,2.51
		c2.31,0,4.22-0.34,5.72-1.03c1.5-0.69,2.94-1.67,4.31-2.96c1.37-1.2,2.46-2.64,3.28-4.31c0.81-1.67,1.22-3.49,1.22-5.46v-40.38h18
		v67.12h-17.49v-9.26c-2.74,3.94-5.85,6.81-9.32,8.62c-3.47,1.8-7.18,2.7-11.12,2.7c-7.63,0-13.24-1.99-16.84-5.98
		s-5.4-10.26-5.4-18.84V1871.03z"/>
	<path class="st2" d="M1521.76,1929.28c-5.14,7.29-12.09,10.93-20.83,10.93c-9.43,0-16.46-3.17-21.09-9.52
		c-4.63-6.34-6.94-15.13-6.94-26.36c0-5.23,0.66-10.01,1.99-14.34c1.33-4.33,3.23-8.06,5.72-11.19c2.49-3.13,5.53-5.55,9.13-7.26
		c3.6-1.71,7.67-2.57,12.22-2.57c3.34,0,6.66,0.6,9.97,1.8c3.3,1.2,6.41,3.52,9.32,6.94v-31.38h18v91.81h-17.49V1929.28z
		 M1521.37,1903.82c0-4.29-0.37-7.72-1.09-10.29c-0.73-2.57-1.91-4.67-3.54-6.3c-1.54-1.54-3.24-2.55-5.08-3.02
		c-1.84-0.47-3.66-0.71-5.46-0.71c-1.97,0-3.84,0.39-5.59,1.16c-1.76,0.77-3.3,1.97-4.63,3.6c-1.33,1.63-2.38,3.77-3.15,6.43
		c-0.77,2.66-1.16,5.83-1.16,9.52c0,4.03,0.36,7.39,1.09,10.09c0.73,2.7,1.74,4.89,3.02,6.56c1.29,1.67,2.78,2.87,4.5,3.6
		c1.71,0.73,3.56,1.09,5.53,1.09c4.29,0,7.8-1.24,10.54-3.73c1.71-1.71,2.98-3.79,3.79-6.24c0.81-2.44,1.22-5.59,1.22-9.45V1903.82z
		"/>
	<path class="st2" d="M1568.18,1916.8c0.6,3.94,2.19,6.52,4.76,7.72c2.57,1.2,5.66,1.8,9.26,1.8c4.29,0,7.35-0.53,9.19-1.61
		c1.84-1.07,2.76-2.81,2.76-5.21c0-1.71-0.58-3.21-1.74-4.5s-3.37-2.19-6.62-2.7l-9.26-1.54c-8.15-1.29-14.21-3.49-18.19-6.62
		c-3.99-3.13-5.98-7.86-5.98-14.21c0-3.26,0.71-6.17,2.12-8.74c1.41-2.57,3.41-4.76,5.98-6.56c2.57-1.8,5.64-3.19,9.19-4.18
		c3.56-0.98,7.48-1.48,11.77-1.48c5.31,0,9.77,0.54,13.37,1.61c3.6,1.07,6.54,2.51,8.81,4.31c2.27,1.8,3.99,3.94,5.14,6.43
		c1.16,2.49,1.99,5.14,2.51,7.97l-16.07,2.06c-0.77-3.09-2.12-5.36-4.05-6.81c-1.93-1.46-5.04-2.19-9.32-2.19
		c-2.4,0-4.39,0.19-5.98,0.58c-1.59,0.39-2.83,0.88-3.73,1.48c-0.9,0.6-1.54,1.29-1.93,2.06s-0.58,1.5-0.58,2.19
		c0,2.14,0.66,3.71,1.99,4.69c1.33,0.99,3.92,1.82,7.78,2.51l8.49,1.41c4.71,0.77,8.62,1.76,11.7,2.96c3.09,1.2,5.55,2.68,7.39,4.44
		c1.84,1.76,3.13,3.84,3.86,6.24c0.73,2.4,1.09,5.19,1.09,8.36c0,6.34-2.4,11.42-7.2,15.24c-4.8,3.81-12.22,5.72-22.25,5.72
		c-4.03,0-7.87-0.37-11.51-1.09c-3.64-0.73-6.9-1.99-9.77-3.79c-2.87-1.8-5.23-4.2-7.07-7.2c-1.84-3-2.89-6.77-3.15-11.32H1568.18z"
		/>
	<path class="st2" d="M1624.24,1846.34h17.62v48.09l25.85-23.4h20.83l-24.43,23.15l26.36,43.98h-19.42l-19.8-33.95l-9.39,8.49v25.46
		h-17.62V1846.34z"/>
	<path class="st2" d="M1756.17,1917.19c-1.2,7.54-4.22,13.27-9.07,17.17c-4.84,3.9-11.89,5.85-21.15,5.85
		c-11.14,0-19.53-3.09-25.14-9.26c-5.62-6.17-8.42-14.92-8.42-26.23c0-5.66,0.81-10.69,2.44-15.11c1.63-4.41,3.92-8.17,6.88-11.25
		c2.96-3.09,6.49-5.42,10.61-7.01c4.11-1.58,8.66-2.38,13.63-2.38c10.29,0,18.02,2.96,23.21,8.87c5.19,5.92,7.78,13.89,7.78,23.92
		v7.2h-46.55c0.17,5.4,1.54,9.62,4.11,12.67c2.57,3.04,6.43,4.57,11.57,4.57c7.11,0,11.32-3,12.6-9H1756.17z M1739.58,1897.13
		c0-4.63-1.14-8.23-3.41-10.8c-2.27-2.57-5.81-3.86-10.61-3.86c-2.4,0-4.5,0.39-6.3,1.16s-3.32,1.82-4.56,3.15
		c-1.24,1.33-2.21,2.87-2.89,4.63c-0.69,1.76-1.07,3.67-1.16,5.72H1739.58z M1728.39,1841.84h20.45l-19.29,19.93h-16.59
		L1728.39,1841.84z"/>
	<path class="st2" d="M1792.17,1871.03H1813l15.04,46.68l15.04-46.68h19.93l-26.49,67.12h-18L1792.17,1871.03z"/>
	<path class="st2" d="M1870.09,1925.93l32.66-40.89h-32.02v-14.02h54.91v12.22l-32.53,40.89h34.08l-1.67,14.02h-55.42V1925.93z"/>
	<path class="st2" d="M1944.29,1885.04h-10.54v-14.02h10.54v-17.87h18v17.87h15.43v14.02h-15.43v30.99c0,3.52,0.73,5.9,2.19,7.14
		c1.46,1.24,3.34,1.86,5.66,1.86c1.2,0,2.42-0.06,3.67-0.19c1.24-0.13,2.46-0.36,3.66-0.71l2.57,13.24
		c-2.49,0.77-4.91,1.31-7.27,1.61c-2.36,0.3-4.61,0.45-6.75,0.45c-7.37,0-12.84-1.76-16.39-5.27c-3.56-3.51-5.34-9.43-5.34-17.75
		V1885.04z M1971.8,1841.71h15.17l-6.94,21.86h-11.83L1971.8,1841.71z"/>
	<path class="st2" d="M2028.77,1929.66c-2.66,3-5.64,5.44-8.94,7.33c-3.3,1.88-7.57,2.83-12.79,2.83c-3,0-5.85-0.39-8.55-1.16
		s-5.06-1.97-7.07-3.6c-2.01-1.63-3.62-3.71-4.82-6.24c-1.2-2.53-1.8-5.55-1.8-9.07c0-4.63,1.03-8.4,3.09-11.32
		c2.06-2.91,4.76-5.19,8.1-6.82c3.34-1.63,7.09-2.78,11.25-3.47c4.16-0.69,8.38-1.11,12.67-1.29l8.62-0.39v-3.34
		c0-4.12-1.14-6.94-3.41-8.49c-2.27-1.54-4.95-2.32-8.04-2.32c-7.12,0-11.19,2.7-12.22,8.1l-16.46-1.54
		c1.2-7.03,4.29-12.11,9.26-15.24c4.97-3.13,11.66-4.69,20.06-4.69c5.14,0,9.52,0.62,13.12,1.86c3.6,1.24,6.49,3.02,8.68,5.34
		c2.19,2.31,3.77,5.12,4.76,8.42c0.98,3.3,1.48,7.01,1.48,11.12v42.43h-16.97V1929.66z M2028.38,1908.19l-7.97,0.39
		c-3.77,0.17-6.81,0.56-9.13,1.16c-2.32,0.6-4.09,1.35-5.34,2.25c-1.24,0.9-2.08,1.95-2.51,3.15c-0.43,1.2-0.64,2.53-0.64,3.99
		c0,2.23,0.77,3.99,2.31,5.27s3.69,1.93,6.43,1.93c4.63,0,8.4-1.07,11.32-3.21c1.63-1.2,2.96-2.72,3.99-4.56
		c1.03-1.84,1.54-4.13,1.54-6.88V1908.19z"/>
	<path class="st2" d="M2061.04,1846.34h18v33.18c2.66-3.6,5.74-6.26,9.26-7.97c3.51-1.71,7.2-2.57,11.06-2.57
		c7.63,0,13.29,1.99,16.97,5.98c3.68,3.99,5.53,10.27,5.53,18.84v44.36h-18v-41.92c0-4.71-0.9-7.93-2.7-9.64
		c-1.8-1.71-4.2-2.57-7.2-2.57c-2.31,0-4.31,0.34-5.98,1.03c-1.67,0.69-3.24,1.67-4.69,2.96c-1.2,1.2-2.21,2.64-3.02,4.31
		c-0.82,1.67-1.22,3.49-1.22,5.46v40.38h-18V1846.34z"/>
	<path class="st2" d="M2137.8,1947.67c2.49,0.68,5.01,1.03,7.59,1.03c2.4,0,4.33-0.58,5.79-1.74c1.46-1.16,2.7-3.2,3.73-6.11
		l2.06-5.66l-27.9-64.17h20.83l15.69,44.11l14.66-44.11h19.67l-27.13,69.05c-1.54,3.86-3,7.22-4.37,10.09
		c-1.37,2.87-2.94,5.27-4.69,7.2c-1.76,1.93-3.86,3.36-6.3,4.31c-2.44,0.94-5.46,1.41-9.07,1.41c-2.23,0-4.44-0.15-6.62-0.45
		c-2.19-0.3-4.48-0.83-6.88-1.61L2137.8,1947.67z"/>
	<path class="st2" d="M2197.47,1917.45h18.39v20.7h-18.39V1917.45z"/>
</g>
</svg>
